<svg width="23" height="23" viewBox="0 0 23 23" xmlns="http://www.w3.org/2000/svg"><title>Combined Shape</title><path d="M11.5 23C5.149 23 0 17.851 0 11.5S5.149 0 11.5 0 23 5.149 23 11.5 17.851 23 11.5 23zm-.068-6.44c-.951 0-1.837-.26-2.625-.78-.787-.52-1.378-1.171-1.772-1.985L3.098 7.028c-.82 1.464-1.181 3.058-1.181 4.717 0 2.376.787 4.425 2.33 6.182 1.542 1.757 3.478 2.798 5.774 3.156l2.757-4.75a4.023 4.023 0 0 1-1.346.228zM8.445 7.565c.902-.697 1.904-.996 3.04-.996h8.32c-.868-1.462-2.038-2.525-3.508-3.356a9.33 9.33 0 0 0-4.812-1.295c-1.503 0-2.94.332-4.243.963-1.303.631-2.54 1.562-3.409 2.758l2.807 4.584c.267-1.063.902-1.96 1.805-2.658zm11.904.103h-5.61c.968.975 1.636 2.253 1.636 3.665 0 1.042-.3 1.984-.868 2.858L11.5 21.083c2.638-.033 4.909-.975 6.778-2.891 1.87-1.917 2.805-4.204 2.805-6.86 0-1.244-.2-2.556-.734-3.665zm-8.849 0c-2.09 0-3.833 1.742-3.833 3.833 0 2.09 1.742 3.833 3.833 3.833 2.09 0 3.833-1.742 3.833-3.833 0-2.09-1.742-3.833-3.833-3.833z" fill="#FFF" fill-rule="evenodd"/></svg>