<svg width="375" height="70" viewBox="0 0 375 70" fill="none" xmlns="http://www.w3.org/2000/svg">
<g filter="url(#filter0_d)">
<path fill-rule="evenodd" clip-rule="evenodd" d="M112.549 55.576V70.2962H111.161V55.576H112.549Z" fill="#C7C6F9"/>
<path fill-rule="evenodd" clip-rule="evenodd" d="M128.672 55.576V70.2962H127.284V55.576H128.672Z" fill="#C7C6F9"/>
<path fill-rule="evenodd" clip-rule="evenodd" d="M145.544 55.576V70.2962H144.156V55.576H145.544Z" fill="#C7C6F9"/>
<path fill-rule="evenodd" clip-rule="evenodd" d="M163.168 55.576V70.2962H161.78V55.576H163.168Z" fill="#C7C6F9"/>
<path fill-rule="evenodd" clip-rule="evenodd" d="M181.916 55.576V70.2962H180.528V55.576H181.916Z" fill="#C7C6F9"/>
<path fill-rule="evenodd" clip-rule="evenodd" d="M201.79 55.576V70.2962H200.402V55.576H201.79Z" fill="#C7C6F9"/>
<path fill-rule="evenodd" clip-rule="evenodd" d="M222.412 55.576V70.2962H221.024V55.576H222.412Z" fill="#C7C6F9"/>
<path fill-rule="evenodd" clip-rule="evenodd" d="M244.159 55.576V70.2962H242.772V55.576H244.159Z" fill="#C7C6F9"/>
<path fill-rule="evenodd" clip-rule="evenodd" d="M266.569 55.576V70.2962H265.181V55.576H266.569Z" fill="#C7C6F9"/>
<path fill-rule="evenodd" clip-rule="evenodd" d="M290.655 55.576V70.2962H289.267V55.576H290.655Z" fill="#C7C6F9"/>
<path fill-rule="evenodd" clip-rule="evenodd" d="M315.402 55.576V70.2962H314.014V55.576H315.402Z" fill="#C7C6F9"/>
<path fill-rule="evenodd" clip-rule="evenodd" d="M340.524 55.576V70.2962H339.136V55.576H340.524Z" fill="#C7C6F9"/>
<path fill-rule="evenodd" clip-rule="evenodd" d="M366.773 55.576V70.2962H365.385V55.576H366.773Z" fill="#C7C6F9"/>
<path fill-rule="evenodd" clip-rule="evenodd" d="M394.647 55.576V70.2962H393.259V55.576H394.647Z" fill="#C7C6F9"/>
<path fill-rule="evenodd" clip-rule="evenodd" d="M110.858 27.8955L114.205 42.2572L112.851 42.5522L109.504 28.1905L110.858 27.8955Z" fill="#C7C6F9"/>
<path fill-rule="evenodd" clip-rule="evenodd" d="M127.264 27.8644L130.056 42.3354L128.691 42.5814L125.9 28.1104L127.264 27.8644Z" fill="#C7C6F9"/>
<path fill-rule="evenodd" clip-rule="evenodd" d="M143.671 27.9219L147.377 42.1992L146.031 42.5258L142.325 28.2485L143.671 27.9219Z" fill="#C7C6F9"/>
<path fill-rule="evenodd" clip-rule="evenodd" d="M161.34 27.9142L164.958 42.2146L163.61 42.5335L159.992 28.2331L161.34 27.9142Z" fill="#C7C6F9"/>
<path fill-rule="evenodd" clip-rule="evenodd" d="M180.203 27.8993L183.596 42.2495L182.243 42.5485L178.85 28.1983L180.203 27.8993Z" fill="#C7C6F9"/>
<path fill-rule="evenodd" clip-rule="evenodd" d="M200.37 27.8654L203.184 42.3325L201.82 42.5804L199.006 28.1133L200.37 27.8654Z" fill="#C7C6F9"/>
<path fill-rule="evenodd" clip-rule="evenodd" d="M221.048 27.8605L223.755 42.3468L222.389 42.5853L219.683 28.099L221.048 27.8605Z" fill="#C7C6F9"/>
<path fill-rule="evenodd" clip-rule="evenodd" d="M242.832 27.858L245.465 42.3577L244.098 42.5898L241.465 28.09L242.832 27.858Z" fill="#C7C6F9"/>
<path fill-rule="evenodd" clip-rule="evenodd" d="M264.93 27.8904L268.175 42.2713L266.819 42.5573L263.574 28.1765L264.93 27.8904Z" fill="#C7C6F9"/>
<path fill-rule="evenodd" clip-rule="evenodd" d="M289.316 27.8589L291.972 42.3548L290.606 42.5889L287.949 28.093L289.316 27.8589Z" fill="#C7C6F9"/>
<path fill-rule="evenodd" clip-rule="evenodd" d="M313.811 27.883L316.963 42.285L315.605 42.5628L312.453 28.1609L313.811 27.883Z" fill="#C7C6F9"/>
<path fill-rule="evenodd" clip-rule="evenodd" d="M339.006 27.8759L342.016 42.3066L340.655 42.5719L337.645 28.1411L339.006 27.8759Z" fill="#C7C6F9"/>
<path fill-rule="evenodd" clip-rule="evenodd" d="M364.868 27.9269L368.633 42.189L367.288 42.5208L363.523 28.2588L364.868 27.9269Z" fill="#C7C6F9"/>
<path fill-rule="evenodd" clip-rule="evenodd" d="M392.652 27.9402L396.596 42.1601L395.255 42.5076L391.312 28.2877L392.652 27.9402Z" fill="#C7C6F9"/>
<path fill-rule="evenodd" clip-rule="evenodd" d="M108.737 1.50645L116.183 14.3461L114.973 15.0024L107.526 2.16277L108.737 1.50645Z" fill="#C7C6F9"/>
<path fill-rule="evenodd" clip-rule="evenodd" d="M125.167 1.38089L132.027 14.5234L130.788 15.128L123.928 1.98546L125.167 1.38089Z" fill="#C7C6F9"/>
<path fill-rule="evenodd" clip-rule="evenodd" d="M141.736 1.50488L149.175 14.3484L147.964 15.004L140.525 2.16052L141.736 1.50488Z" fill="#C7C6F9"/>
<path fill-rule="evenodd" clip-rule="evenodd" d="M159.576 1.41563L166.605 14.4738L165.374 15.0933L158.345 2.03508L159.576 1.41563Z" fill="#C7C6F9"/>
<path fill-rule="evenodd" clip-rule="evenodd" d="M178.016 1.54512L185.63 14.2928L184.428 14.9638L176.814 2.21614L178.016 1.54512Z" fill="#C7C6F9"/>
<path fill-rule="evenodd" clip-rule="evenodd" d="M198.171 1.42506L205.248 14.4602L204.019 15.0839L196.943 2.04866L198.171 1.42506Z" fill="#C7C6F9"/>
<path fill-rule="evenodd" clip-rule="evenodd" d="M218.474 1.5611L226.161 14.2685L224.963 14.9459L217.276 2.23853L218.474 1.5611Z" fill="#C7C6F9"/>
<path fill-rule="evenodd" clip-rule="evenodd" d="M240.651 1.38248L247.519 14.5212L246.28 15.1264L239.412 1.98773L240.651 1.38248Z" fill="#C7C6F9"/>
<path fill-rule="evenodd" clip-rule="evenodd" d="M262.809 1.48407L270.155 14.3774L268.939 15.0248L261.594 2.13152L262.809 1.48407Z" fill="#C7C6F9"/>
<path fill-rule="evenodd" clip-rule="evenodd" d="M287.239 1.34814L293.929 14.5712L292.682 15.1608L285.993 1.93773L287.239 1.34814Z" fill="#C7C6F9"/>
<path fill-rule="evenodd" clip-rule="evenodd" d="M311.696 1.4617L318.941 14.4087L317.72 15.0472L310.476 2.10022L311.696 1.4617Z" fill="#C7C6F9"/>
<path fill-rule="evenodd" clip-rule="evenodd" d="M337.063 1.36539L343.84 14.5463L342.597 15.1436L335.821 1.96268L337.063 1.36539Z" fill="#C7C6F9"/>
<path fill-rule="evenodd" clip-rule="evenodd" d="M363.069 1.46007L370.308 14.4109L369.087 15.0489L361.848 2.09802L363.069 1.46007Z" fill="#C7C6F9"/>
<path fill-rule="evenodd" clip-rule="evenodd" d="M392.652 0.970795L396.596 15.1906L395.255 15.5381L391.312 1.31831L392.652 0.970795Z" fill="#C7C6F9"/>
<path fill-rule="evenodd" clip-rule="evenodd" d="M107.702 -23.3559L117.1 -11.7738L116.008 -10.9456L106.61 -22.5277L107.702 -23.3559Z" fill="#C7C6F9"/>
<path fill-rule="evenodd" clip-rule="evenodd" d="M123.793 -23.3374L133.25 -11.7994L132.163 -10.966L122.705 -22.504L123.793 -23.3374Z" fill="#C7C6F9"/>
<path fill-rule="evenodd" clip-rule="evenodd" d="M140.723 -23.3712L150.075 -11.7545L148.98 -10.9303L139.628 -22.547L140.723 -23.3712Z" fill="#C7C6F9"/>
<path fill-rule="evenodd" clip-rule="evenodd" d="M158.091 -23.2061L167.917 -11.9613L166.857 -11.0954L157.031 -22.3401L158.091 -23.2061Z" fill="#C7C6F9"/>
<path fill-rule="evenodd" clip-rule="evenodd" d="M176.967 -23.2915L186.555 -11.8569L185.477 -11.0119L175.889 -22.4464L176.967 -23.2915Z" fill="#C7C6F9"/>
<path fill-rule="evenodd" clip-rule="evenodd" d="M196.771 -23.2473L206.488 -11.9124L205.419 -11.0561L195.702 -22.391L196.771 -23.2473Z" fill="#C7C6F9"/>
<path fill-rule="evenodd" clip-rule="evenodd" d="M217.658 -23.4135L226.883 -11.7029L225.779 -10.8899L216.554 -22.6004L217.658 -23.4135Z" fill="#C7C6F9"/>
<path fill-rule="evenodd" clip-rule="evenodd" d="M239.268 -23.327L248.749 -11.8101L247.663 -10.9744L238.182 -22.4914L239.268 -23.327Z" fill="#C7C6F9"/>
<path fill-rule="evenodd" clip-rule="evenodd" d="M261.947 -23.4926L270.923 -11.6018L269.802 -10.8108L260.826 -22.7016L261.947 -23.4926Z" fill="#C7C6F9"/>
<path fill-rule="evenodd" clip-rule="evenodd" d="M285.975 -23.459L295.06 -11.6449L293.946 -10.8443L284.862 -22.6584L285.975 -23.459Z" fill="#C7C6F9"/>
<path fill-rule="evenodd" clip-rule="evenodd" d="M310.543 -23.3474L319.964 -11.7844L318.874 -10.954L309.452 -22.517L310.543 -23.3474Z" fill="#C7C6F9"/>
<path fill-rule="evenodd" clip-rule="evenodd" d="M335.709 -23.3763L345.048 -11.7501L343.952 -10.927L334.613 -22.5533L335.709 -23.3763Z" fill="#C7C6F9"/>
<path fill-rule="evenodd" clip-rule="evenodd" d="M363.069 -23.9451L370.308 -10.9943L369.087 -10.3563L361.848 -23.3072L363.069 -23.9451Z" fill="#C7C6F9"/>
<path fill-rule="evenodd" clip-rule="evenodd" d="M392.652 -24.4344L396.596 -10.2146L395.255 -9.86703L391.312 -24.0869L392.652 -24.4344Z" fill="#C7C6F9"/>
<path fill-rule="evenodd" clip-rule="evenodd" d="M106.313 -46.4503L118.257 -37.3219L117.396 -36.2692L105.453 -45.3977L106.313 -46.4503Z" fill="#C7C6F9"/>
<path fill-rule="evenodd" clip-rule="evenodd" d="M122.755 -46.7566L134.124 -36.9649L133.2 -35.9629L121.832 -45.7547L122.755 -46.7566Z" fill="#C7C6F9"/>
<path fill-rule="evenodd" clip-rule="evenodd" d="M139.485 -46.6242L151.113 -37.1201L150.217 -36.0953L138.589 -45.5995L139.485 -46.6242Z" fill="#C7C6F9"/>
<path fill-rule="evenodd" clip-rule="evenodd" d="M156.977 -46.4948L168.843 -37.2705L167.973 -36.2247L156.107 -45.449L156.977 -46.4948Z" fill="#C7C6F9"/>
<path fill-rule="evenodd" clip-rule="evenodd" d="M175.89 -46.6561L187.457 -37.0829L186.554 -36.0635L174.987 -45.6367L175.89 -46.6561Z" fill="#C7C6F9"/>
<path fill-rule="evenodd" clip-rule="evenodd" d="M195.555 -46.4521L207.496 -37.3179L206.635 -36.2655L194.694 -45.3997L195.555 -46.4521Z" fill="#C7C6F9"/>
<path fill-rule="evenodd" clip-rule="evenodd" d="M216.134 -46.4076L228.155 -37.3712L227.303 -36.3119L215.282 -45.3483L216.134 -46.4076Z" fill="#C7C6F9"/>
<path fill-rule="evenodd" clip-rule="evenodd" d="M237.933 -46.4592L249.862 -37.3116L249 -36.2603L237.07 -45.4079L237.933 -46.4592Z" fill="#C7C6F9"/>
<path fill-rule="evenodd" clip-rule="evenodd" d="M260.666 -46.7689L272.009 -36.9503L271.083 -35.9506L259.74 -45.7692L260.666 -46.7689Z" fill="#C7C6F9"/>
<path fill-rule="evenodd" clip-rule="evenodd" d="M284.74 -46.7583L296.105 -36.9628L295.181 -35.9612L283.817 -45.7567L284.74 -46.7583Z" fill="#C7C6F9"/>
<path fill-rule="evenodd" clip-rule="evenodd" d="M309.429 -46.7055L320.9 -37.0249L319.988 -36.014L308.516 -45.6945L309.429 -46.7055Z" fill="#C7C6F9"/>
<path fill-rule="evenodd" clip-rule="evenodd" d="M335.709 -47.5834L345.048 -35.9572L343.952 -35.1342L334.613 -46.7604L335.709 -47.5834Z" fill="#C7C6F9"/>
<path fill-rule="evenodd" clip-rule="evenodd" d="M363.069 -48.1541L370.308 -35.2033L369.087 -34.5653L361.848 -47.5162L363.069 -48.1541Z" fill="#C7C6F9"/>
<path fill-rule="evenodd" clip-rule="evenodd" d="M392.652 -48.6434L396.596 -34.4236L395.255 -34.076L391.312 -48.2959L392.652 -48.6434Z" fill="#C7C6F9"/>
<path fill-rule="evenodd" clip-rule="evenodd" d="M105.594 -68.827L118.806 -61.5101L118.116 -60.3457L104.904 -67.6626L105.594 -68.827Z" fill="#C7C6F9"/>
<path fill-rule="evenodd" clip-rule="evenodd" d="M121.629 -68.7015L134.992 -61.649L134.327 -60.4712L120.964 -67.5237L121.629 -68.7015Z" fill="#C7C6F9"/>
<path fill-rule="evenodd" clip-rule="evenodd" d="M138.692 -68.9631L151.728 -61.3586L151.011 -60.2096L137.975 -67.8141L138.692 -68.9631Z" fill="#C7C6F9"/>
<path fill-rule="evenodd" clip-rule="evenodd" d="M156.106 -68.676L169.501 -61.6772L168.841 -60.4967L155.447 -67.4955L156.106 -68.676Z" fill="#C7C6F9"/>
<path fill-rule="evenodd" clip-rule="evenodd" d="M174.775 -68.5592L188.305 -61.8058L187.668 -60.6135L174.139 -67.3669L174.775 -68.5592Z" fill="#C7C6F9"/>
<path fill-rule="evenodd" clip-rule="evenodd" d="M194.897 -68.9123L208 -61.4152L207.293 -60.2604L194.19 -67.7575L194.897 -68.9123Z" fill="#C7C6F9"/>
<path fill-rule="evenodd" clip-rule="evenodd" d="M215.376 -68.7124L228.727 -61.637L228.06 -60.4603L214.709 -67.5357L215.376 -68.7124Z" fill="#C7C6F9"/>
<path fill-rule="evenodd" clip-rule="evenodd" d="M236.873 -68.3285L250.649 -62.0582L250.058 -60.8442L236.282 -67.1145L236.873 -68.3285Z" fill="#C7C6F9"/>
<path fill-rule="evenodd" clip-rule="evenodd" d="M259.473 -68.6267L272.926 -61.7315L272.276 -60.5459L258.823 -67.4412L259.473 -68.6267Z" fill="#C7C6F9"/>
<path fill-rule="evenodd" clip-rule="evenodd" d="M283.584 -68.6614L296.995 -61.6933L296.338 -60.5113L282.927 -67.4794L283.584 -68.6614Z" fill="#C7C6F9"/>
<path fill-rule="evenodd" clip-rule="evenodd" d="M309.429 -69.9312L320.9 -60.2525L319.988 -59.2415L308.516 -68.9201L309.429 -69.9312Z" fill="#C7C6F9"/>
<path fill-rule="evenodd" clip-rule="evenodd" d="M335.709 -70.811L345.048 -59.1847L343.952 -58.3617L334.613 -69.9879L335.709 -70.811Z" fill="#C7C6F9"/>
<path fill-rule="evenodd" clip-rule="evenodd" d="M363.069 -71.3817L370.308 -58.4309L369.087 -57.7929L361.848 -70.7437L363.069 -71.3817Z" fill="#C7C6F9"/>
<path fill-rule="evenodd" clip-rule="evenodd" d="M392.652 -71.8691L396.596 -57.6511L395.255 -57.3036L391.312 -71.5215L392.652 -71.8691Z" fill="#C7C6F9"/>
<path fill-rule="evenodd" clip-rule="evenodd" d="M104.393 -128.827L118.894 -133.308L119.317 -132.03L104.816 -127.548L104.393 -128.827Z" fill="#C7C6F9"/>
<path fill-rule="evenodd" clip-rule="evenodd" d="M120.404 -129.42L135.238 -132.744L135.552 -131.437L120.717 -128.113L120.404 -129.42Z" fill="#C7C6F9"/>
<path fill-rule="evenodd" clip-rule="evenodd" d="M137.237 -129.768L152.216 -132.411L152.465 -131.091L137.486 -128.448L137.237 -129.768Z" fill="#C7C6F9"/>
<path fill-rule="evenodd" clip-rule="evenodd" d="M154.864 -129.736L169.829 -132.441L170.084 -131.122L155.119 -128.417L154.864 -129.736Z" fill="#C7C6F9"/>
<path fill-rule="evenodd" clip-rule="evenodd" d="M173.634 -129.543L188.522 -132.626L188.812 -131.314L173.924 -128.231L173.634 -129.543Z" fill="#C7C6F9"/>
<path fill-rule="evenodd" clip-rule="evenodd" d="M193.465 -129.995L208.519 -132.188L208.726 -130.861L193.671 -128.668L193.465 -129.995Z" fill="#C7C6F9"/>
<path fill-rule="evenodd" clip-rule="evenodd" d="M214.085 -130.007L229.145 -132.179L229.35 -130.852L214.29 -128.68L214.085 -130.007Z" fill="#C7C6F9"/>
<path fill-rule="evenodd" clip-rule="evenodd" d="M235.859 -131.151L251.084 -131.049L251.074 -129.708L235.849 -129.809L235.859 -131.151Z" fill="#C7C6F9"/>
<path fill-rule="evenodd" clip-rule="evenodd" d="M258.643 -132.825L273.435 -129.336L273.106 -128.032L258.314 -131.521L258.643 -132.825Z" fill="#C7C6F9"/>
<path fill-rule="evenodd" clip-rule="evenodd" d="M283.584 -134.504L296.995 -127.536L296.338 -126.354L282.927 -133.322L283.584 -134.504Z" fill="#C7C6F9"/>
<path fill-rule="evenodd" clip-rule="evenodd" d="M309.429 -135.774L320.9 -126.094L319.988 -125.083L308.516 -134.763L309.429 -135.774Z" fill="#C7C6F9"/>
<path fill-rule="evenodd" clip-rule="evenodd" d="M335.709 -136.654L345.048 -125.028L343.952 -124.205L334.613 -135.831L335.709 -136.654Z" fill="#C7C6F9"/>
<path fill-rule="evenodd" clip-rule="evenodd" d="M363.069 -137.223L370.308 -124.272L369.087 -123.634L361.848 -136.585L363.069 -137.223Z" fill="#C7C6F9"/>
<path fill-rule="evenodd" clip-rule="evenodd" d="M392.652 -137.712L396.596 -123.492L395.255 -123.145L391.312 -137.365L392.652 -137.712Z" fill="#C7C6F9"/>
<path fill-rule="evenodd" clip-rule="evenodd" d="M105.008 -147.244L117.972 -154.963L118.7 -153.821L105.735 -146.101L105.008 -147.244Z" fill="#C7C6F9"/>
<path fill-rule="evenodd" clip-rule="evenodd" d="M121.03 -147.448L134.234 -154.78L134.926 -153.617L121.721 -146.284L121.03 -147.448Z" fill="#C7C6F9"/>
<path fill-rule="evenodd" clip-rule="evenodd" d="M137.969 -147.313L151.015 -154.902L151.731 -153.752L138.685 -146.163L137.969 -147.313Z" fill="#C7C6F9"/>
<path fill-rule="evenodd" clip-rule="evenodd" d="M155.486 -147.537L168.788 -154.7L169.463 -153.528L156.162 -146.364L155.486 -147.537Z" fill="#C7C6F9"/>
<path fill-rule="evenodd" clip-rule="evenodd" d="M173.986 -148.148L187.893 -154.142L188.458 -152.917L174.551 -146.922L173.986 -148.148Z" fill="#C7C6F9"/>
<path fill-rule="evenodd" clip-rule="evenodd" d="M194.092 -147.571L207.429 -154.671L208.098 -153.496L194.761 -146.395L194.092 -147.571Z" fill="#C7C6F9"/>
<path fill-rule="evenodd" clip-rule="evenodd" d="M214.085 -150.11L229.145 -152.282L229.35 -150.955L214.29 -148.783L214.085 -150.11Z" fill="#C7C6F9"/>
<path fill-rule="evenodd" clip-rule="evenodd" d="M235.859 -151.254L251.084 -151.152L251.074 -149.811L235.849 -149.912L235.859 -151.254Z" fill="#C7C6F9"/>
<path fill-rule="evenodd" clip-rule="evenodd" d="M258.643 -152.929L273.435 -149.439L273.106 -148.135L258.314 -151.626L258.643 -152.929Z" fill="#C7C6F9"/>
<path fill-rule="evenodd" clip-rule="evenodd" d="M283.584 -154.607L296.995 -147.639L296.338 -146.457L282.927 -153.425L283.584 -154.607Z" fill="#C7C6F9"/>
<path fill-rule="evenodd" clip-rule="evenodd" d="M309.429 -155.879L320.9 -146.198L319.988 -145.188L308.516 -154.868L309.429 -155.879Z" fill="#C7C6F9"/>
<path fill-rule="evenodd" clip-rule="evenodd" d="M335.709 -156.757L345.048 -145.131L343.952 -144.308L334.613 -155.934L335.709 -156.757Z" fill="#C7C6F9"/>
<path fill-rule="evenodd" clip-rule="evenodd" d="M363.069 -157.328L370.308 -144.377L369.087 -143.739L361.848 -156.69L363.069 -157.328Z" fill="#C7C6F9"/>
<path fill-rule="evenodd" clip-rule="evenodd" d="M392.652 -157.817L396.596 -143.597L395.255 -143.25L391.312 -157.469L392.652 -157.817Z" fill="#C7C6F9"/>
<path fill-rule="evenodd" clip-rule="evenodd" d="M105.861 -164.781L116.892 -174.927L117.849 -173.955L106.817 -163.809L105.861 -164.781Z" fill="#C7C6F9"/>
<path fill-rule="evenodd" clip-rule="evenodd" d="M121.887 -164.902L133.133 -174.826L134.068 -173.835L122.823 -163.911L121.887 -164.902Z" fill="#C7C6F9"/>
<path fill-rule="evenodd" clip-rule="evenodd" d="M138.459 -165.315L150.38 -174.472L151.244 -173.421L139.322 -164.264L138.459 -165.315Z" fill="#C7C6F9"/>
<path fill-rule="evenodd" clip-rule="evenodd" d="M156.102 -165.286L167.978 -174.497L168.846 -173.45L156.97 -164.239L156.102 -165.286Z" fill="#C7C6F9"/>
<path fill-rule="evenodd" clip-rule="evenodd" d="M174.518 -165.818L187.151 -174.032L187.926 -172.918L175.292 -164.704L174.518 -165.818Z" fill="#C7C6F9"/>
<path fill-rule="evenodd" clip-rule="evenodd" d="M194.092 -166.407L207.429 -173.505L208.098 -172.33L194.761 -165.231L194.092 -166.407Z" fill="#C7C6F9"/>
<path fill-rule="evenodd" clip-rule="evenodd" d="M214.085 -168.946L229.145 -171.118L229.35 -169.791L214.29 -167.619L214.085 -168.946Z" fill="#C7C6F9"/>
<path fill-rule="evenodd" clip-rule="evenodd" d="M235.859 -170.09L251.084 -169.988L251.074 -168.646L235.849 -168.748L235.859 -170.09Z" fill="#C7C6F9"/>
<path fill-rule="evenodd" clip-rule="evenodd" d="M258.643 -171.765L273.435 -168.275L273.106 -166.971L258.314 -170.462L258.643 -171.765Z" fill="#C7C6F9"/>
<path fill-rule="evenodd" clip-rule="evenodd" d="M283.584 -173.443L296.995 -166.475L296.338 -165.293L282.927 -172.261L283.584 -173.443Z" fill="#C7C6F9"/>
<path fill-rule="evenodd" clip-rule="evenodd" d="M309.429 -174.713L320.9 -165.034L319.988 -164.023L308.516 -173.702L309.429 -174.713Z" fill="#C7C6F9"/>
<path fill-rule="evenodd" clip-rule="evenodd" d="M335.709 -175.593L345.048 -163.967L343.952 -163.144L334.613 -174.77L335.709 -175.593Z" fill="#C7C6F9"/>
<path fill-rule="evenodd" clip-rule="evenodd" d="M363.069 -176.163L370.308 -163.211L369.087 -162.573L361.848 -175.526L363.069 -176.163Z" fill="#C7C6F9"/>
<path fill-rule="evenodd" clip-rule="evenodd" d="M392.652 -176.651L396.596 -162.433L395.255 -162.085L391.312 -176.303L392.652 -176.651Z" fill="#C7C6F9"/>
<path fill-rule="evenodd" clip-rule="evenodd" d="M106.426 -183.252L116.221 -194.522L117.283 -193.658L107.489 -182.389L106.426 -183.252Z" fill="#C7C6F9"/>
<path fill-rule="evenodd" clip-rule="evenodd" d="M122.687 -183.12L132.184 -194.625L133.269 -193.788L123.772 -182.283L122.687 -183.12Z" fill="#C7C6F9"/>
<path fill-rule="evenodd" clip-rule="evenodd" d="M139.493 -183.182L149.135 -194.576L150.209 -193.726L140.567 -182.332L139.493 -183.182Z" fill="#C7C6F9"/>
<path fill-rule="evenodd" clip-rule="evenodd" d="M157.207 -183.098L166.652 -194.644L167.741 -193.812L158.296 -182.266L157.207 -183.098Z" fill="#C7C6F9"/>
<path fill-rule="evenodd" clip-rule="evenodd" d="M174.85 -184.373L186.728 -193.582L187.596 -192.535L175.718 -183.326L174.85 -184.373Z" fill="#C7C6F9"/>
<path fill-rule="evenodd" clip-rule="evenodd" d="M194.092 -185.492L207.429 -192.592L208.098 -191.417L194.761 -184.316L194.092 -185.492Z" fill="#C7C6F9"/>
<path fill-rule="evenodd" clip-rule="evenodd" d="M214.236 -186.943L228.795 -191.25L229.201 -189.967L214.642 -185.66L214.236 -186.943Z" fill="#C7C6F9"/>
<path fill-rule="evenodd" clip-rule="evenodd" d="M235.859 -189.177L251.084 -189.075L251.074 -187.733L235.849 -187.835L235.859 -189.177Z" fill="#C7C6F9"/>
<path fill-rule="evenodd" clip-rule="evenodd" d="M258.643 -190.852L273.435 -187.361L273.106 -186.058L258.314 -189.549L258.643 -190.852Z" fill="#C7C6F9"/>
<path fill-rule="evenodd" clip-rule="evenodd" d="M283.584 -192.53L296.995 -185.562L296.338 -184.38L282.927 -191.348L283.584 -192.53Z" fill="#C7C6F9"/>
<path fill-rule="evenodd" clip-rule="evenodd" d="M309.429 -193.8L320.9 -184.119L319.988 -183.108L308.516 -192.789L309.429 -193.8Z" fill="#C7C6F9"/>
<path fill-rule="evenodd" clip-rule="evenodd" d="M335.709 -194.68L345.048 -183.053L343.952 -182.23L334.613 -193.857L335.709 -194.68Z" fill="#C7C6F9"/>
<path fill-rule="evenodd" clip-rule="evenodd" d="M363.069 -195.249L370.308 -182.298L369.087 -181.66L361.848 -194.611L363.069 -195.249Z" fill="#C7C6F9"/>
<path fill-rule="evenodd" clip-rule="evenodd" d="M392.652 -195.738L396.596 -181.518L395.255 -181.17L391.312 -195.39L392.652 -195.738Z" fill="#C7C6F9"/>
<path fill-rule="evenodd" clip-rule="evenodd" d="M108.221 -198.928L114.213 -212.461L115.489 -211.933L109.497 -198.4L108.221 -198.928Z" fill="#C7C6F9"/>
<path fill-rule="evenodd" clip-rule="evenodd" d="M124.35 -198.925L130.329 -212.463L131.606 -211.936L125.626 -198.398L124.35 -198.925Z" fill="#C7C6F9"/>
<path fill-rule="evenodd" clip-rule="evenodd" d="M140.527 -199.337L147.964 -212.182L149.175 -211.526L141.738 -198.681L140.527 -199.337Z" fill="#C7C6F9"/>
<path fill-rule="evenodd" clip-rule="evenodd" d="M157.207 -200.075L166.652 -211.621L167.741 -210.788L158.296 -199.242L157.207 -200.075Z" fill="#C7C6F9"/>
<path fill-rule="evenodd" clip-rule="evenodd" d="M174.85 -201.349L186.728 -210.558L187.596 -209.512L175.718 -200.303L174.85 -201.349Z" fill="#C7C6F9"/>
<path fill-rule="evenodd" clip-rule="evenodd" d="M194.092 -202.468L207.429 -209.568L208.098 -208.393L194.761 -201.293L194.092 -202.468Z" fill="#C7C6F9"/>
<path fill-rule="evenodd" clip-rule="evenodd" d="M214.236 -203.919L228.795 -208.227L229.201 -206.944L214.642 -202.636L214.236 -203.919Z" fill="#C7C6F9"/>
<path fill-rule="evenodd" clip-rule="evenodd" d="M235.859 -206.153L251.084 -206.052L251.074 -204.71L235.849 -204.811L235.859 -206.153Z" fill="#C7C6F9"/>
<path fill-rule="evenodd" clip-rule="evenodd" d="M258.643 -207.829L273.435 -204.338L273.106 -203.034L258.314 -206.525L258.643 -207.829Z" fill="#C7C6F9"/>
<path fill-rule="evenodd" clip-rule="evenodd" d="M283.584 -209.507L296.995 -202.538L296.338 -201.356L282.927 -208.325L283.584 -209.507Z" fill="#C7C6F9"/>
<path fill-rule="evenodd" clip-rule="evenodd" d="M309.429 -210.776L320.9 -201.096L319.988 -200.085L308.516 -209.765L309.429 -210.776Z" fill="#C7C6F9"/>
<path fill-rule="evenodd" clip-rule="evenodd" d="M335.709 -211.656L345.048 -200.03L343.952 -199.207L334.613 -210.833L335.709 -211.656Z" fill="#C7C6F9"/>
<path fill-rule="evenodd" clip-rule="evenodd" d="M363.069 -212.225L370.308 -199.274L369.087 -198.636L361.848 -211.587L363.069 -212.225Z" fill="#C7C6F9"/>
<path fill-rule="evenodd" clip-rule="evenodd" d="M392.652 -212.714L396.596 -198.494L395.255 -198.147L391.312 -212.367L392.652 -212.714Z" fill="#C7C6F9"/>
<path fill-rule="evenodd" clip-rule="evenodd" d="M109.119 -215.451L113.255 -229.617L114.591 -229.252L110.455 -215.086L109.119 -215.451Z" fill="#C7C6F9"/>
<path fill-rule="evenodd" clip-rule="evenodd" d="M125.662 -215.307L128.938 -229.684L130.293 -229.396L127.018 -215.019L125.662 -215.307Z" fill="#C7C6F9"/>
<path fill-rule="evenodd" clip-rule="evenodd" d="M140.527 -216.257L147.964 -229.103L149.175 -228.447L141.738 -215.602L140.527 -216.257Z" fill="#C7C6F9"/>
<path fill-rule="evenodd" clip-rule="evenodd" d="M157.207 -216.994L166.652 -228.541L167.741 -227.709L158.296 -216.161L157.207 -216.994Z" fill="#C7C6F9"/>
<path fill-rule="evenodd" clip-rule="evenodd" d="M174.85 -218.27L186.728 -227.479L187.596 -226.432L175.718 -217.223L174.85 -218.27Z" fill="#C7C6F9"/>
<path fill-rule="evenodd" clip-rule="evenodd" d="M194.092 -219.389L207.429 -226.489L208.098 -225.314L194.761 -218.213L194.092 -219.389Z" fill="#C7C6F9"/>
<path fill-rule="evenodd" clip-rule="evenodd" d="M214.236 -220.838L228.795 -225.148L229.201 -223.864L214.643 -219.555L214.236 -220.838Z" fill="#C7C6F9"/>
<path fill-rule="evenodd" clip-rule="evenodd" d="M235.859 -223.074L251.084 -222.972L251.074 -221.631L235.849 -221.732L235.859 -223.074Z" fill="#C7C6F9"/>
<path fill-rule="evenodd" clip-rule="evenodd" d="M258.643 -224.748L273.435 -221.259L273.106 -219.955L258.314 -223.444L258.643 -224.748Z" fill="#C7C6F9"/>
<path fill-rule="evenodd" clip-rule="evenodd" d="M283.584 -226.427L296.995 -219.459L296.338 -218.277L282.927 -225.245L283.584 -226.427Z" fill="#C7C6F9"/>
<path fill-rule="evenodd" clip-rule="evenodd" d="M309.429 -227.697L320.9 -218.017L319.988 -217.006L308.516 -226.686L309.429 -227.697Z" fill="#C7C6F9"/>
<path fill-rule="evenodd" clip-rule="evenodd" d="M335.709 -228.577L345.048 -216.951L343.952 -216.128L334.613 -227.754L335.709 -228.577Z" fill="#C7C6F9"/>
<path fill-rule="evenodd" clip-rule="evenodd" d="M363.069 -229.146L370.308 -216.195L369.087 -215.557L361.848 -228.508L363.069 -229.146Z" fill="#C7C6F9"/>
<path fill-rule="evenodd" clip-rule="evenodd" d="M392.652 -229.635L396.596 -215.415L395.255 -215.068L391.312 -229.288L392.652 -229.635Z" fill="#C7C6F9"/>
<path fill-rule="evenodd" clip-rule="evenodd" d="M235.859 -240.346L251.084 -240.244L251.074 -238.902L235.849 -239.004L235.859 -240.346Z" fill="#C7C6F9"/>
<path fill-rule="evenodd" clip-rule="evenodd" d="M111.161 -232.264V-246.984L112.549 -246.984V-232.264L111.161 -232.264Z" fill="#C7C6F9"/>
<path fill-rule="evenodd" clip-rule="evenodd" d="M126.111 -232.456L128.474 -247L129.845 -246.792L127.482 -232.248L126.111 -232.456Z" fill="#C7C6F9"/>
<path fill-rule="evenodd" clip-rule="evenodd" d="M141.26 -233.099L147.161 -246.669L148.44 -246.149L142.54 -232.579L141.26 -233.099Z" fill="#C7C6F9"/>
<path fill-rule="evenodd" clip-rule="evenodd" d="M157.207 -234.267L166.652 -245.813L167.741 -244.981L158.296 -233.435L157.207 -234.267Z" fill="#C7C6F9"/>
<path fill-rule="evenodd" clip-rule="evenodd" d="M174.85 -235.542L186.728 -244.753L187.596 -243.706L175.718 -234.495L174.85 -235.542Z" fill="#C7C6F9"/>
<path fill-rule="evenodd" clip-rule="evenodd" d="M194.092 -236.663L207.429 -243.761L208.098 -242.585L194.761 -235.487L194.092 -236.663Z" fill="#C7C6F9"/>
<path fill-rule="evenodd" clip-rule="evenodd" d="M214.236 -238.112L228.795 -242.419L229.201 -241.136L214.642 -236.829L214.236 -238.112Z" fill="#C7C6F9"/>
<path fill-rule="evenodd" clip-rule="evenodd" d="M258.643 -242.021L273.435 -238.53L273.106 -237.227L258.314 -240.718L258.643 -242.021Z" fill="#C7C6F9"/>
<path fill-rule="evenodd" clip-rule="evenodd" d="M283.584 -243.699L296.995 -236.731L296.338 -235.549L282.927 -242.517L283.584 -243.699Z" fill="#C7C6F9"/>
<path fill-rule="evenodd" clip-rule="evenodd" d="M309.429 -244.969L320.9 -235.29L319.988 -234.279L308.516 -243.958L309.429 -244.969Z" fill="#C7C6F9"/>
<path fill-rule="evenodd" clip-rule="evenodd" d="M335.709 -245.849L345.048 -234.222L343.952 -233.399L334.613 -245.026L335.709 -245.849Z" fill="#C7C6F9"/>
<path fill-rule="evenodd" clip-rule="evenodd" d="M363.069 -246.419L370.308 -233.468L369.087 -232.831L361.848 -245.781L363.069 -246.419Z" fill="#C7C6F9"/>
<path fill-rule="evenodd" clip-rule="evenodd" d="M392.652 -246.907L396.596 -232.689L395.255 -232.341L391.312 -246.559L392.652 -246.907Z" fill="#C7C6F9"/>
<path fill-rule="evenodd" clip-rule="evenodd" d="M104.566 -90.2895L119.44 -87.1496L119.144 -85.8386L104.27 -88.9785L104.566 -90.2895Z" fill="#C7C6F9"/>
<path fill-rule="evenodd" clip-rule="evenodd" d="M120.686 -90.2839L135.564 -87.1574L135.269 -85.8461L120.391 -88.9727L120.686 -90.2839Z" fill="#C7C6F9"/>
<path fill-rule="evenodd" clip-rule="evenodd" d="M137.521 -90.1635L152.453 -87.2805L152.181 -85.9646L137.25 -88.8477L137.521 -90.1635Z" fill="#C7C6F9"/>
<path fill-rule="evenodd" clip-rule="evenodd" d="M155.125 -90.1014L170.082 -87.3468L169.823 -86.0286L154.866 -88.7833L155.125 -90.1014Z" fill="#C7C6F9"/>
<path fill-rule="evenodd" clip-rule="evenodd" d="M176.575 -90.2839L191.453 -87.1574L191.158 -85.8461L176.281 -88.9727L176.575 -90.2839Z" fill="#C7C6F9"/>
<path fill-rule="evenodd" clip-rule="evenodd" d="M194.824 -90.1635L209.755 -87.2805L209.484 -85.9646L194.552 -88.8477L194.824 -90.1635Z" fill="#C7C6F9"/>
<path fill-rule="evenodd" clip-rule="evenodd" d="M213.566 -90.1014L228.523 -87.3468L228.263 -86.0286L213.306 -88.7833L213.566 -90.1014Z" fill="#C7C6F9"/>
<path fill-rule="evenodd" clip-rule="evenodd" d="M236.134 -90.1579L251.067 -87.2882L250.797 -85.9721L235.863 -88.8418L236.134 -90.1579Z" fill="#C7C6F9"/>
<path fill-rule="evenodd" clip-rule="evenodd" d="M258.599 -90.3327L273.455 -87.1046L273.15 -85.7954L258.294 -89.0235L258.599 -90.3327Z" fill="#C7C6F9"/>
<path fill-rule="evenodd" clip-rule="evenodd" d="M283.584 -92.14L296.995 -85.172L296.338 -83.99L282.927 -90.958L283.584 -92.14Z" fill="#C7C6F9"/>
<path fill-rule="evenodd" clip-rule="evenodd" d="M309.429 -93.4098L320.9 -83.7312L319.988 -82.7202L308.516 -92.3988L309.429 -93.4098Z" fill="#C7C6F9"/>
<path fill-rule="evenodd" clip-rule="evenodd" d="M335.709 -94.2896L345.048 -82.6634L343.952 -81.8404L334.613 -93.4666L335.709 -94.2896Z" fill="#C7C6F9"/>
<path fill-rule="evenodd" clip-rule="evenodd" d="M363.069 -94.8584L370.308 -81.9076L369.087 -81.2696L361.848 -94.2205L363.069 -94.8584Z" fill="#C7C6F9"/>
<path fill-rule="evenodd" clip-rule="evenodd" d="M392.652 -95.3477L396.596 -81.1298L395.255 -80.7822L391.312 -95.0002L392.652 -95.3477Z" fill="#C7C6F9"/>
<path fill-rule="evenodd" clip-rule="evenodd" d="M235.852 -111.246H251.079V-109.904H235.852V-111.246Z" fill="#C7C6F9"/>
<path fill-rule="evenodd" clip-rule="evenodd" d="M217.177 -111.246H232.404V-109.904H217.177V-111.246Z" fill="#C7C6F9"/>
<path fill-rule="evenodd" clip-rule="evenodd" d="M198.503 -111.246H213.73V-109.904H198.503V-111.246Z" fill="#C7C6F9"/>
<path fill-rule="evenodd" clip-rule="evenodd" d="M179.828 -111.246H195.053V-109.904H179.828V-111.246Z" fill="#C7C6F9"/>
<path fill-rule="evenodd" clip-rule="evenodd" d="M161.154 -111.246H176.378V-109.904H161.154V-111.246Z" fill="#C7C6F9"/>
<path fill-rule="evenodd" clip-rule="evenodd" d="M142.479 -111.246H157.704V-109.904H142.479V-111.246Z" fill="#C7C6F9"/>
<path fill-rule="evenodd" clip-rule="evenodd" d="M123.804 -111.246H139.029V-109.904H123.804V-111.246Z" fill="#C7C6F9"/>
<path fill-rule="evenodd" clip-rule="evenodd" d="M105.128 -111.246H120.354V-109.904H105.128V-111.246Z" fill="#C7C6F9"/>
<path fill-rule="evenodd" clip-rule="evenodd" d="M258.599 -112.843L273.455 -109.615L273.15 -108.306L258.294 -111.534L258.599 -112.843Z" fill="#C7C6F9"/>
<path fill-rule="evenodd" clip-rule="evenodd" d="M283.584 -114.651L296.995 -107.683L296.338 -106.501L282.927 -113.469L283.584 -114.651Z" fill="#C7C6F9"/>
<path fill-rule="evenodd" clip-rule="evenodd" d="M309.429 -115.92L320.9 -106.242L319.988 -105.231L308.516 -114.909L309.429 -115.92Z" fill="#C7C6F9"/>
<path fill-rule="evenodd" clip-rule="evenodd" d="M335.709 -116.8L345.048 -105.174L343.952 -104.351L334.613 -115.977L335.709 -116.8Z" fill="#C7C6F9"/>
<path fill-rule="evenodd" clip-rule="evenodd" d="M363.069 -117.369L370.308 -104.418L369.087 -103.78L361.848 -116.731L363.069 -117.369Z" fill="#C7C6F9"/>
<path fill-rule="evenodd" clip-rule="evenodd" d="M392.652 -117.858L396.596 -103.64L395.255 -103.293L391.312 -117.511L392.652 -117.858Z" fill="#C7C6F9"/>
<path fill-rule="evenodd" clip-rule="evenodd" d="M91.0474 -232.279V-246.999L92.4353 -246.999V-232.279H91.0474Z" fill="#C7C6F9"/>
<path fill-rule="evenodd" clip-rule="evenodd" d="M74.9244 -232.279V-246.999L76.3123 -246.999V-232.279H74.9244Z" fill="#C7C6F9"/>
<path fill-rule="evenodd" clip-rule="evenodd" d="M58.052 -232.279V-246.999L59.4399 -246.999V-232.279H58.052Z" fill="#C7C6F9"/>
<path fill-rule="evenodd" clip-rule="evenodd" d="M40.4282 -232.279V-246.999L41.816 -246.999V-232.279L40.4282 -232.279Z" fill="#C7C6F9"/>
<path fill-rule="evenodd" clip-rule="evenodd" d="M21.6802 -232.279V-246.999L23.0681 -246.999V-232.279H21.6802Z" fill="#C7C6F9"/>
<path fill-rule="evenodd" clip-rule="evenodd" d="M1.80602 -232.279V-246.999L3.19389 -246.999V-232.279H1.80602Z" fill="#C7C6F9"/>
<path fill-rule="evenodd" clip-rule="evenodd" d="M-18.8156 -232.279V-246.999L-17.4277 -246.999V-232.279H-18.8156Z" fill="#C7C6F9"/>
<path fill-rule="evenodd" clip-rule="evenodd" d="M-40.5633 -232.279V-246.999L-39.1755 -246.999V-232.279H-40.5633Z" fill="#C7C6F9"/>
<path fill-rule="evenodd" clip-rule="evenodd" d="M-62.9733 -232.279V-246.999L-61.5854 -246.999V-232.279H-62.9733Z" fill="#C7C6F9"/>
<path fill-rule="evenodd" clip-rule="evenodd" d="M-87.0586 -232.279V-246.999L-85.6707 -246.999V-232.279H-87.0586Z" fill="#C7C6F9"/>
<path fill-rule="evenodd" clip-rule="evenodd" d="M-111.806 -232.279V-246.999L-110.418 -246.999V-232.279H-111.806Z" fill="#C7C6F9"/>
<path fill-rule="evenodd" clip-rule="evenodd" d="M-136.928 -232.279L-136.928 -246.999L-135.54 -246.999L-135.54 -232.279H-136.928Z" fill="#C7C6F9"/>
<path fill-rule="evenodd" clip-rule="evenodd" d="M-163.177 -232.279L-163.177 -246.999L-161.789 -246.999L-161.789 -232.279H-163.177Z" fill="#C7C6F9"/>
<path fill-rule="evenodd" clip-rule="evenodd" d="M-191.051 -232.279L-191.051 -246.999L-189.663 -246.999L-189.663 -232.279H-191.051Z" fill="#C7C6F9"/>
<path fill-rule="evenodd" clip-rule="evenodd" d="M92.7377 -204.599L89.391 -218.96L90.7449 -219.255L94.0916 -204.893L92.7377 -204.599Z" fill="#C7C6F9"/>
<path fill-rule="evenodd" clip-rule="evenodd" d="M76.332 -204.567L73.5404 -219.038L74.9047 -219.284L77.6963 -204.813L76.332 -204.567Z" fill="#C7C6F9"/>
<path fill-rule="evenodd" clip-rule="evenodd" d="M59.9247 -204.625L56.2191 -218.902L57.5652 -219.229L61.2708 -204.951L59.9247 -204.625Z" fill="#C7C6F9"/>
<path fill-rule="evenodd" clip-rule="evenodd" d="M42.2562 -204.617L38.6379 -218.918L39.986 -219.236L43.6043 -204.936L42.2562 -204.617Z" fill="#C7C6F9"/>
<path fill-rule="evenodd" clip-rule="evenodd" d="M23.3928 -204.602L20.0005 -218.952L21.3535 -219.251L24.7458 -204.901L23.3928 -204.602Z" fill="#C7C6F9"/>
<path fill-rule="evenodd" clip-rule="evenodd" d="M3.22571 -204.568L0.412292 -219.036L1.77625 -219.283L4.58963 -204.816L3.22571 -204.568Z" fill="#C7C6F9"/>
<path fill-rule="evenodd" clip-rule="evenodd" d="M-17.4523 -204.564L-20.1587 -219.05L-18.7929 -219.288L-16.0866 -204.802L-17.4523 -204.564Z" fill="#C7C6F9"/>
<path fill-rule="evenodd" clip-rule="evenodd" d="M-39.2364 -204.561L-41.8693 -219.061L-40.5024 -219.293L-37.8694 -204.793L-39.2364 -204.561Z" fill="#C7C6F9"/>
<path fill-rule="evenodd" clip-rule="evenodd" d="M-61.3335 -204.593L-64.5792 -218.974L-63.2232 -219.26L-59.9776 -204.879L-61.3335 -204.593Z" fill="#C7C6F9"/>
<path fill-rule="evenodd" clip-rule="evenodd" d="M-85.7196 -204.562L-88.3763 -219.058L-87.0098 -219.292L-84.353 -204.796L-85.7196 -204.562Z" fill="#C7C6F9"/>
<path fill-rule="evenodd" clip-rule="evenodd" d="M-110.215 -204.586L-113.367 -218.988L-112.009 -219.266L-108.857 -204.864L-110.215 -204.586Z" fill="#C7C6F9"/>
<path fill-rule="evenodd" clip-rule="evenodd" d="M-135.41 -204.579L-138.419 -219.01L-137.059 -219.275L-134.049 -204.844L-135.41 -204.579Z" fill="#C7C6F9"/>
<path fill-rule="evenodd" clip-rule="evenodd" d="M-161.272 -204.63L-165.037 -218.892L-163.692 -219.224L-159.927 -204.962L-161.272 -204.63Z" fill="#C7C6F9"/>
<path fill-rule="evenodd" clip-rule="evenodd" d="M-189.056 -204.643L-193 -218.863L-191.659 -219.211L-187.716 -204.991L-189.056 -204.643Z" fill="#C7C6F9"/>
<path fill-rule="evenodd" clip-rule="evenodd" d="M94.8595 -178.209L87.4126 -191.049L88.6231 -191.705L96.07 -178.866L94.8595 -178.209Z" fill="#C7C6F9"/>
<path fill-rule="evenodd" clip-rule="evenodd" d="M78.4288 -178.084L71.5688 -191.226L72.8079 -191.831L79.6678 -178.688L78.4288 -178.084Z" fill="#C7C6F9"/>
<path fill-rule="evenodd" clip-rule="evenodd" d="M61.86 -178.208L54.4211 -191.051L55.632 -191.707L63.0709 -178.864L61.86 -178.208Z" fill="#C7C6F9"/>
<path fill-rule="evenodd" clip-rule="evenodd" d="M44.0198 -178.119L36.9913 -191.177L38.2224 -191.796L45.2509 -178.738L44.0198 -178.119Z" fill="#C7C6F9"/>
<path fill-rule="evenodd" clip-rule="evenodd" d="M25.5799 -178.248L17.9665 -190.996L19.1684 -191.667L26.7817 -178.919L25.5799 -178.248Z" fill="#C7C6F9"/>
<path fill-rule="evenodd" clip-rule="evenodd" d="M5.42458 -178.128L-1.65154 -191.163L-0.422653 -191.787L6.65344 -178.752L5.42458 -178.128Z" fill="#C7C6F9"/>
<path fill-rule="evenodd" clip-rule="evenodd" d="M-14.8783 -178.264L-22.565 -190.971L-21.367 -191.649L-13.6802 -178.942L-14.8783 -178.264Z" fill="#C7C6F9"/>
<path fill-rule="evenodd" clip-rule="evenodd" d="M-37.0547 -178.086L-43.9227 -191.224L-42.684 -191.829L-35.8161 -178.691L-37.0547 -178.086Z" fill="#C7C6F9"/>
<path fill-rule="evenodd" clip-rule="evenodd" d="M-59.2133 -178.187L-66.5591 -191.08L-65.3434 -191.728L-57.9977 -178.835L-59.2133 -178.187Z" fill="#C7C6F9"/>
<path fill-rule="evenodd" clip-rule="evenodd" d="M-83.6433 -178.051L-90.3328 -191.274L-89.0861 -191.864L-82.3966 -178.641L-83.6433 -178.051Z" fill="#C7C6F9"/>
<path fill-rule="evenodd" clip-rule="evenodd" d="M-108.1 -178.165L-115.345 -191.112L-114.124 -191.75L-106.88 -178.803L-108.1 -178.165Z" fill="#C7C6F9"/>
<path fill-rule="evenodd" clip-rule="evenodd" d="M-133.467 -178.068L-140.244 -191.249L-139.001 -191.847L-132.225 -178.666L-133.467 -178.068Z" fill="#C7C6F9"/>
<path fill-rule="evenodd" clip-rule="evenodd" d="M-159.473 -178.163L-166.712 -191.114L-165.491 -191.752L-158.252 -178.801L-159.473 -178.163Z" fill="#C7C6F9"/>
<path fill-rule="evenodd" clip-rule="evenodd" d="M-189.056 -177.674L-193 -191.894L-191.659 -192.241L-187.716 -178.021L-189.056 -177.674Z" fill="#C7C6F9"/>
<path fill-rule="evenodd" clip-rule="evenodd" d="M95.8942 -153.347L86.4964 -164.929L87.5884 -165.757L96.9861 -154.175L95.8942 -153.347Z" fill="#C7C6F9"/>
<path fill-rule="evenodd" clip-rule="evenodd" d="M79.8031 -153.366L70.3459 -164.904L71.4336 -165.737L80.8908 -154.199L79.8031 -153.366Z" fill="#C7C6F9"/>
<path fill-rule="evenodd" clip-rule="evenodd" d="M62.8734 -153.332L53.5213 -164.948L54.6164 -165.773L63.9686 -154.156L62.8734 -153.332Z" fill="#C7C6F9"/>
<path fill-rule="evenodd" clip-rule="evenodd" d="M45.5051 -153.497L35.679 -164.742L36.7391 -165.608L46.5652 -154.363L45.5051 -153.497Z" fill="#C7C6F9"/>
<path fill-rule="evenodd" clip-rule="evenodd" d="M26.6291 -153.412L17.041 -164.846L18.1191 -165.691L27.7072 -154.257L26.6291 -153.412Z" fill="#C7C6F9"/>
<path fill-rule="evenodd" clip-rule="evenodd" d="M6.82518 -153.456L-2.89182 -164.791L-1.82327 -165.647L7.89371 -154.312L6.82518 -153.456Z" fill="#C7C6F9"/>
<path fill-rule="evenodd" clip-rule="evenodd" d="M-14.062 -153.29L-23.2873 -165L-22.1833 -165.813L-12.958 -154.103L-14.062 -153.29Z" fill="#C7C6F9"/>
<path fill-rule="evenodd" clip-rule="evenodd" d="M-35.6718 -153.376L-45.1529 -164.893L-44.067 -165.729L-34.5859 -154.212L-35.6718 -153.376Z" fill="#C7C6F9"/>
<path fill-rule="evenodd" clip-rule="evenodd" d="M-58.3512 -153.21L-67.3266 -165.101L-66.2056 -165.892L-57.2301 -154.001L-58.3512 -153.21Z" fill="#C7C6F9"/>
<path fill-rule="evenodd" clip-rule="evenodd" d="M-82.3793 -153.244L-91.4638 -165.058L-90.35 -165.859L-81.2655 -154.045L-82.3793 -153.244Z" fill="#C7C6F9"/>
<path fill-rule="evenodd" clip-rule="evenodd" d="M-106.946 -153.356L-116.368 -164.919L-115.278 -165.749L-105.856 -154.186L-106.946 -153.356Z" fill="#C7C6F9"/>
<path fill-rule="evenodd" clip-rule="evenodd" d="M-132.113 -153.327L-141.452 -164.953L-140.355 -165.776L-131.017 -154.15L-132.113 -153.327Z" fill="#C7C6F9"/>
<path fill-rule="evenodd" clip-rule="evenodd" d="M-159.473 -152.758L-166.712 -165.709L-165.491 -166.347L-158.252 -153.396L-159.473 -152.758Z" fill="#C7C6F9"/>
<path fill-rule="evenodd" clip-rule="evenodd" d="M-189.056 -152.269L-193 -166.488L-191.659 -166.836L-187.716 -152.616L-189.056 -152.269Z" fill="#C7C6F9"/>
<path fill-rule="evenodd" clip-rule="evenodd" d="M97.2827 -130.253L85.3392 -139.381L86.1999 -140.434L98.1434 -131.305L97.2827 -130.253Z" fill="#C7C6F9"/>
<path fill-rule="evenodd" clip-rule="evenodd" d="M80.841 -129.946L69.4725 -139.738L70.3956 -140.74L81.7642 -130.948L80.841 -129.946Z" fill="#C7C6F9"/>
<path fill-rule="evenodd" clip-rule="evenodd" d="M64.1111 -130.079L52.4828 -139.583L53.3788 -140.608L65.0071 -131.104L64.1111 -130.079Z" fill="#C7C6F9"/>
<path fill-rule="evenodd" clip-rule="evenodd" d="M46.6194 -130.208L34.7532 -139.433L35.6228 -140.478L47.489 -131.254L46.6194 -130.208Z" fill="#C7C6F9"/>
<path fill-rule="evenodd" clip-rule="evenodd" d="M27.7063 -130.047L16.1394 -139.62L17.042 -140.64L28.6088 -131.066L27.7063 -130.047Z" fill="#C7C6F9"/>
<path fill-rule="evenodd" clip-rule="evenodd" d="M8.04118 -130.251L-3.90036 -139.385L-3.03925 -140.438L8.90227 -131.303L8.04118 -130.251Z" fill="#C7C6F9"/>
<path fill-rule="evenodd" clip-rule="evenodd" d="M-12.5381 -130.295L-24.559 -139.332L-23.7071 -140.391L-11.6863 -131.355L-12.5381 -130.295Z" fill="#C7C6F9"/>
<path fill-rule="evenodd" clip-rule="evenodd" d="M-34.3368 -130.244L-46.2664 -139.391L-45.404 -140.443L-33.4744 -131.295L-34.3368 -130.244Z" fill="#C7C6F9"/>
<path fill-rule="evenodd" clip-rule="evenodd" d="M-57.0699 -129.934L-68.4126 -139.753L-67.4869 -140.752L-56.1441 -130.934L-57.0699 -129.934Z" fill="#C7C6F9"/>
<path fill-rule="evenodd" clip-rule="evenodd" d="M-81.1441 -129.945L-92.5087 -139.74L-91.5852 -140.742L-80.2206 -130.946L-81.1441 -129.945Z" fill="#C7C6F9"/>
<path fill-rule="evenodd" clip-rule="evenodd" d="M-105.833 -129.998L-117.304 -139.678L-116.392 -140.689L-104.92 -131.008L-105.833 -129.998Z" fill="#C7C6F9"/>
<path fill-rule="evenodd" clip-rule="evenodd" d="M-132.113 -129.12L-141.452 -140.746L-140.355 -141.569L-131.017 -129.943L-132.113 -129.12Z" fill="#C7C6F9"/>
<path fill-rule="evenodd" clip-rule="evenodd" d="M-159.473 -128.549L-166.712 -141.5L-165.491 -142.138L-158.252 -129.187L-159.473 -128.549Z" fill="#C7C6F9"/>
<path fill-rule="evenodd" clip-rule="evenodd" d="M-189.056 -128.06L-193 -142.279L-191.659 -142.627L-187.716 -128.407L-189.056 -128.06Z" fill="#C7C6F9"/>
<path fill-rule="evenodd" clip-rule="evenodd" d="M98.0026 -107.876L84.7902 -115.193L85.48 -116.357L98.6924 -109.04L98.0026 -107.876Z" fill="#C7C6F9"/>
<path fill-rule="evenodd" clip-rule="evenodd" d="M81.9674 -108.002L68.6043 -115.054L69.2693 -116.232L82.6324 -109.179L81.9674 -108.002Z" fill="#C7C6F9"/>
<path fill-rule="evenodd" clip-rule="evenodd" d="M64.9044 -107.74L51.8685 -115.344L52.5854 -116.493L65.6214 -108.889L64.9044 -107.74Z" fill="#C7C6F9"/>
<path fill-rule="evenodd" clip-rule="evenodd" d="M47.4896 -108.027L34.0948 -115.026L34.7546 -116.206L48.1495 -109.208L47.4896 -108.027Z" fill="#C7C6F9"/>
<path fill-rule="evenodd" clip-rule="evenodd" d="M28.8206 -108.144L15.2909 -114.897L15.9276 -116.09L29.4573 -109.336L28.8206 -108.144Z" fill="#C7C6F9"/>
<path fill-rule="evenodd" clip-rule="evenodd" d="M8.69923 -107.791L-4.40411 -115.288L-3.69731 -116.443L9.40604 -108.945L8.69923 -107.791Z" fill="#C7C6F9"/>
<path fill-rule="evenodd" clip-rule="evenodd" d="M-11.7796 -107.991L-25.1308 -115.066L-24.4637 -116.243L-11.1125 -109.167L-11.7796 -107.991Z" fill="#C7C6F9"/>
<path fill-rule="evenodd" clip-rule="evenodd" d="M-33.2772 -108.375L-47.0527 -114.645L-46.4616 -115.859L-32.6861 -109.589L-33.2772 -108.375Z" fill="#C7C6F9"/>
<path fill-rule="evenodd" clip-rule="evenodd" d="M-55.8772 -108.076L-69.3296 -114.972L-68.6795 -116.157L-55.2272 -109.262L-55.8772 -108.076Z" fill="#C7C6F9"/>
<path fill-rule="evenodd" clip-rule="evenodd" d="M-79.9878 -108.042L-93.3985 -115.01L-92.7415 -116.192L-79.3308 -109.224L-79.9878 -108.042Z" fill="#C7C6F9"/>
<path fill-rule="evenodd" clip-rule="evenodd" d="M-105.833 -106.772L-117.304 -116.45L-116.392 -117.462L-104.92 -107.783L-105.833 -106.772Z" fill="#C7C6F9"/>
<path fill-rule="evenodd" clip-rule="evenodd" d="M-132.113 -105.892L-141.452 -117.518L-140.356 -118.341L-131.017 -106.715L-132.113 -105.892Z" fill="#C7C6F9"/>
<path fill-rule="evenodd" clip-rule="evenodd" d="M-159.473 -105.321L-166.712 -118.272L-165.491 -118.91L-158.252 -105.959L-159.473 -105.321Z" fill="#C7C6F9"/>
<path fill-rule="evenodd" clip-rule="evenodd" d="M-189.056 -104.834L-193 -119.052L-191.659 -119.399L-187.716 -105.182L-189.056 -104.834Z" fill="#C7C6F9"/>
<path fill-rule="evenodd" clip-rule="evenodd" d="M99.2032 -47.8764L84.702 -43.3946L84.2794 -44.6728L98.7806 -49.1546L99.2032 -47.8764Z" fill="#C7C6F9"/>
<path fill-rule="evenodd" clip-rule="evenodd" d="M83.1921 -47.283L68.3578 -43.959L68.0446 -45.2662L82.8788 -48.5902L83.1921 -47.283Z" fill="#C7C6F9"/>
<path fill-rule="evenodd" clip-rule="evenodd" d="M66.359 -46.9354L51.3801 -44.2919L51.1308 -45.612L66.1098 -48.2554L66.359 -46.9354Z" fill="#C7C6F9"/>
<path fill-rule="evenodd" clip-rule="evenodd" d="M48.7321 -46.9666L33.767 -44.2617L33.512 -45.5808L48.4771 -48.2856L48.7321 -46.9666Z" fill="#C7C6F9"/>
<path fill-rule="evenodd" clip-rule="evenodd" d="M29.9623 -47.1598L15.0745 -44.0774L14.7839 -45.3895L29.6717 -48.4719L29.9623 -47.1598Z" fill="#C7C6F9"/>
<path fill-rule="evenodd" clip-rule="evenodd" d="M10.1315 -46.7077L-4.92284 -44.5147L-5.12959 -45.8416L9.9247 -48.0345L10.1315 -46.7077Z" fill="#C7C6F9"/>
<path fill-rule="evenodd" clip-rule="evenodd" d="M-10.4891 -46.696L-25.5494 -44.5241L-25.7542 -45.8513L-10.6939 -48.0232L-10.4891 -46.696Z" fill="#C7C6F9"/>
<path fill-rule="evenodd" clip-rule="evenodd" d="M-32.2628 -45.552L-47.4876 -45.6536L-47.478 -46.9954L-32.2532 -46.8938L-32.2628 -45.552Z" fill="#C7C6F9"/>
<path fill-rule="evenodd" clip-rule="evenodd" d="M-55.0465 -43.8784L-69.8391 -47.3672L-69.5103 -48.6709L-54.7176 -45.182L-55.0465 -43.8784Z" fill="#C7C6F9"/>
<path fill-rule="evenodd" clip-rule="evenodd" d="M-79.9878 -42.1987L-93.3985 -49.1667L-92.7415 -50.3487L-79.3308 -43.3806L-79.9878 -42.1987Z" fill="#C7C6F9"/>
<path fill-rule="evenodd" clip-rule="evenodd" d="M-105.833 -40.9289L-117.304 -50.6095L-116.392 -51.6204L-104.92 -41.9398L-105.833 -40.9289Z" fill="#C7C6F9"/>
<path fill-rule="evenodd" clip-rule="evenodd" d="M-132.113 -40.0491L-141.452 -51.6753L-140.356 -52.4983L-131.017 -40.8721L-132.113 -40.0491Z" fill="#C7C6F9"/>
<path fill-rule="evenodd" clip-rule="evenodd" d="M-159.473 -39.4803L-166.712 -52.4311L-165.491 -53.0691L-158.252 -40.1182L-159.473 -39.4803Z" fill="#C7C6F9"/>
<path fill-rule="evenodd" clip-rule="evenodd" d="M-189.056 -38.991L-193 -53.2108L-191.659 -53.5583L-187.716 -39.3385L-189.056 -38.991Z" fill="#C7C6F9"/>
<path fill-rule="evenodd" clip-rule="evenodd" d="M98.5884 -29.4592L85.6239 -21.7397L84.8961 -22.8823L97.8607 -30.6018L98.5884 -29.4592Z" fill="#C7C6F9"/>
<path fill-rule="evenodd" clip-rule="evenodd" d="M82.5662 -29.2551L69.3617 -21.9228L68.6705 -23.0864L81.8749 -30.4187L82.5662 -29.2551Z" fill="#C7C6F9"/>
<path fill-rule="evenodd" clip-rule="evenodd" d="M65.6266 -29.3904L52.5807 -21.8013L51.8652 -22.951L64.9111 -30.5402L65.6266 -29.3904Z" fill="#C7C6F9"/>
<path fill-rule="evenodd" clip-rule="evenodd" d="M48.1096 -29.1664L34.8079 -22.0028L34.1326 -23.1751L47.4342 -30.3387L48.1096 -29.1664Z" fill="#C7C6F9"/>
<path fill-rule="evenodd" clip-rule="evenodd" d="M29.6098 -28.5551L15.7035 -22.5608L15.1383 -23.7864L29.0447 -29.7807L29.6098 -28.5551Z" fill="#C7C6F9"/>
<path fill-rule="evenodd" clip-rule="evenodd" d="M9.5043 -29.1322L-3.83301 -22.0319L-4.50243 -23.2073L8.83488 -30.3077L9.5043 -29.1322Z" fill="#C7C6F9"/>
<path fill-rule="evenodd" clip-rule="evenodd" d="M-10.4891 -26.5931L-25.5494 -24.4212L-25.7542 -25.7484L-10.6939 -27.9203L-10.4891 -26.5931Z" fill="#C7C6F9"/>
<path fill-rule="evenodd" clip-rule="evenodd" d="M-32.2628 -25.449L-47.4876 -25.5506L-47.478 -26.8925L-32.2532 -26.7908L-32.2628 -25.449Z" fill="#C7C6F9"/>
<path fill-rule="evenodd" clip-rule="evenodd" d="M-55.0466 -23.7736L-69.8392 -27.2643L-69.5102 -28.5679L-54.7176 -25.0772L-55.0466 -23.7736Z" fill="#C7C6F9"/>
<path fill-rule="evenodd" clip-rule="evenodd" d="M-79.9878 -22.0957L-93.3985 -29.0638L-92.7415 -30.2458L-79.3309 -23.2777L-79.9878 -22.0957Z" fill="#C7C6F9"/>
<path fill-rule="evenodd" clip-rule="evenodd" d="M-105.833 -20.8241L-117.304 -30.5046L-116.392 -31.5155L-104.92 -21.835L-105.833 -20.8241Z" fill="#C7C6F9"/>
<path fill-rule="evenodd" clip-rule="evenodd" d="M-132.113 -19.9461L-141.452 -31.5724L-140.356 -32.3954L-131.017 -20.7691L-132.113 -19.9461Z" fill="#C7C6F9"/>
<path fill-rule="evenodd" clip-rule="evenodd" d="M-159.473 -19.3754L-166.712 -32.3263L-165.491 -32.9642L-158.252 -20.0134L-159.473 -19.3754Z" fill="#C7C6F9"/>
<path fill-rule="evenodd" clip-rule="evenodd" d="M-189.056 -18.8861L-193 -33.106L-191.659 -33.4535L-187.716 -19.2337L-189.056 -18.8861Z" fill="#C7C6F9"/>
<path fill-rule="evenodd" clip-rule="evenodd" d="M97.7353 -11.9219L86.7038 -1.77559L85.7473 -2.74782L96.7787 -12.8942L97.7353 -11.9219Z" fill="#C7C6F9"/>
<path fill-rule="evenodd" clip-rule="evenodd" d="M81.7089 -11.8013L70.4633 -1.87735L69.5277 -2.86842L80.7733 -12.7924L81.7089 -11.8013Z" fill="#C7C6F9"/>
<path fill-rule="evenodd" clip-rule="evenodd" d="M65.1374 -11.3882L53.2157 -2.23094L52.3524 -3.28162L64.2741 -12.4388L65.1374 -11.3882Z" fill="#C7C6F9"/>
<path fill-rule="evenodd" clip-rule="evenodd" d="M47.4944 -11.417L35.6182 -2.2061L34.7498 -3.25279L46.6259 -12.4637L47.4944 -11.417Z" fill="#C7C6F9"/>
<path fill-rule="evenodd" clip-rule="evenodd" d="M29.0781 -10.8852L16.4446 -2.6711L15.6701 -3.78461L28.3036 -11.9987L29.0781 -10.8852Z" fill="#C7C6F9"/>
<path fill-rule="evenodd" clip-rule="evenodd" d="M9.5042 -10.2963L-3.83311 -3.19792L-4.50237 -4.37346L8.83495 -11.4719L9.5042 -10.2963Z" fill="#C7C6F9"/>
<path fill-rule="evenodd" clip-rule="evenodd" d="M-10.4891 -7.75728L-25.5494 -5.58536L-25.7542 -6.91252L-10.6939 -9.08443L-10.4891 -7.75728Z" fill="#C7C6F9"/>
<path fill-rule="evenodd" clip-rule="evenodd" d="M-32.2628 -6.6132L-47.4876 -6.71481L-47.478 -8.05663L-32.2532 -7.955L-32.2628 -6.6132Z" fill="#C7C6F9"/>
<path fill-rule="evenodd" clip-rule="evenodd" d="M-55.0466 -4.93776L-69.8392 -8.4285L-69.5102 -9.73206L-54.7176 -6.24133L-55.0466 -4.93776Z" fill="#C7C6F9"/>
<path fill-rule="evenodd" clip-rule="evenodd" d="M-79.9878 -3.25989L-93.3985 -10.228L-92.7416 -11.4099L-79.3309 -4.44186L-79.9878 -3.25989Z" fill="#C7C6F9"/>
<path fill-rule="evenodd" clip-rule="evenodd" d="M-105.833 -1.9901L-117.304 -11.6687L-116.392 -12.6797L-104.92 -3.00111L-105.833 -1.9901Z" fill="#C7C6F9"/>
<path fill-rule="evenodd" clip-rule="evenodd" d="M-132.113 -1.11031L-141.452 -12.7365L-140.356 -13.5596L-131.017 -1.93333L-132.113 -1.11031Z" fill="#C7C6F9"/>
<path fill-rule="evenodd" clip-rule="evenodd" d="M-159.473 -0.539597L-166.712 -13.4924L-165.491 -14.1303L-158.252 -1.17749L-159.473 -0.539597Z" fill="#C7C6F9"/>
<path fill-rule="evenodd" clip-rule="evenodd" d="M-189.056 -0.0522003L-193 -14.2701L-191.659 -14.6177L-187.716 -0.399765L-189.056 -0.0522003Z" fill="#C7C6F9"/>
<path fill-rule="evenodd" clip-rule="evenodd" d="M97.1697 6.54884L87.3754 17.8185L86.3128 16.9553L96.1072 5.68564L97.1697 6.54884Z" fill="#C7C6F9"/>
<path fill-rule="evenodd" clip-rule="evenodd" d="M80.9092 6.4169L71.4122 17.9224L70.3275 17.0853L79.8244 5.57988L80.9092 6.4169Z" fill="#C7C6F9"/>
<path fill-rule="evenodd" clip-rule="evenodd" d="M64.1028 6.47882L54.4612 17.8731L53.387 17.0234L63.0287 5.62912L64.1028 6.47882Z" fill="#C7C6F9"/>
<path fill-rule="evenodd" clip-rule="evenodd" d="M46.389 6.39542L36.9436 17.9412L35.8551 17.1087L45.3005 5.56297L46.389 6.39542Z" fill="#C7C6F9"/>
<path fill-rule="evenodd" clip-rule="evenodd" d="M28.7462 7.67006L16.8681 16.879L15.9999 15.8322L27.878 6.62318L28.7462 7.67006Z" fill="#C7C6F9"/>
<path fill-rule="evenodd" clip-rule="evenodd" d="M9.50429 8.78867L-3.83302 15.889L-4.50244 14.7135L8.83487 7.6132L9.50429 8.78867Z" fill="#C7C6F9"/>
<path fill-rule="evenodd" clip-rule="evenodd" d="M-10.6403 10.2399L-25.1989 14.5473L-25.605 13.2642L-11.0464 8.9568L-10.6403 10.2399Z" fill="#C7C6F9"/>
<path fill-rule="evenodd" clip-rule="evenodd" d="M-32.2628 12.4737L-47.4876 12.3722L-47.4781 11.0304L-32.2532 11.1319L-32.2628 12.4737Z" fill="#C7C6F9"/>
<path fill-rule="evenodd" clip-rule="evenodd" d="M-55.0466 14.1492L-69.8392 10.6584L-69.5102 9.35486L-54.7176 12.8456L-55.0466 14.1492Z" fill="#C7C6F9"/>
<path fill-rule="evenodd" clip-rule="evenodd" d="M-79.9878 15.8271L-93.3985 8.85901L-92.7416 7.67703L-79.3309 14.6451L-79.9878 15.8271Z" fill="#C7C6F9"/>
<path fill-rule="evenodd" clip-rule="evenodd" d="M-105.833 17.0968L-117.304 7.41629L-116.392 6.40535L-104.92 16.0859L-105.833 17.0968Z" fill="#C7C6F9"/>
<path fill-rule="evenodd" clip-rule="evenodd" d="M-132.113 17.9767L-141.452 6.35043L-140.356 5.5274L-131.017 17.1537L-132.113 17.9767Z" fill="#C7C6F9"/>
<path fill-rule="evenodd" clip-rule="evenodd" d="M-159.473 18.5455L-166.712 5.59464L-165.491 4.9567L-158.252 17.9075L-159.473 18.5455Z" fill="#C7C6F9"/>
<path fill-rule="evenodd" clip-rule="evenodd" d="M-189.056 19.0348L-193 4.81491L-191.659 4.46736L-187.716 18.6872L-189.056 19.0348Z" fill="#C7C6F9"/>
<path fill-rule="evenodd" clip-rule="evenodd" d="M95.375 22.2248L89.3834 35.7584L88.1075 35.2303L94.0991 21.6967L95.375 22.2248Z" fill="#C7C6F9"/>
<path fill-rule="evenodd" clip-rule="evenodd" d="M79.2463 22.2224L73.2666 35.7597L71.9903 35.2327L77.97 21.6953L79.2463 22.2224Z" fill="#C7C6F9"/>
<path fill-rule="evenodd" clip-rule="evenodd" d="M63.0689 22.6335L55.632 35.4789L54.4209 34.8235L61.8579 21.9781L63.0689 22.6335Z" fill="#C7C6F9"/>
<path fill-rule="evenodd" clip-rule="evenodd" d="M46.389 23.3719L36.9436 34.9176L35.8551 34.0851L45.3005 22.5394L46.389 23.3719Z" fill="#C7C6F9"/>
<path fill-rule="evenodd" clip-rule="evenodd" d="M28.7462 24.6465L16.8681 33.8554L15.9999 32.8086L27.878 23.5996L28.7462 24.6465Z" fill="#C7C6F9"/>
<path fill-rule="evenodd" clip-rule="evenodd" d="M9.50429 25.7651L-3.83302 32.8654L-4.50244 31.6899L8.83487 24.5896L9.50429 25.7651Z" fill="#C7C6F9"/>
<path fill-rule="evenodd" clip-rule="evenodd" d="M-10.6403 27.2163L-25.1989 31.5237L-25.605 30.2406L-11.0464 25.9332L-10.6403 27.2163Z" fill="#C7C6F9"/>
<path fill-rule="evenodd" clip-rule="evenodd" d="M-32.2628 29.4502L-47.4876 29.3485L-47.4781 28.0067L-32.2532 28.1083L-32.2628 29.4502Z" fill="#C7C6F9"/>
<path fill-rule="evenodd" clip-rule="evenodd" d="M-55.0466 31.1256L-69.8392 27.6349L-69.5102 26.3313L-54.7176 29.822L-55.0466 31.1256Z" fill="#C7C6F9"/>
<path fill-rule="evenodd" clip-rule="evenodd" d="M-79.9879 32.8035L-93.3985 25.8354L-92.7416 24.6534L-79.3309 31.6215L-79.9879 32.8035Z" fill="#C7C6F9"/>
<path fill-rule="evenodd" clip-rule="evenodd" d="M-105.833 34.0732L-117.304 24.3927L-116.392 23.3818L-104.92 33.0623L-105.833 34.0732Z" fill="#C7C6F9"/>
<path fill-rule="evenodd" clip-rule="evenodd" d="M-132.113 34.9531L-141.452 23.3269L-140.356 22.5038L-131.017 34.13L-132.113 34.9531Z" fill="#C7C6F9"/>
<path fill-rule="evenodd" clip-rule="evenodd" d="M-159.473 35.5219L-166.712 22.571L-165.491 21.9331L-158.252 34.8839L-159.473 35.5219Z" fill="#C7C6F9"/>
<path fill-rule="evenodd" clip-rule="evenodd" d="M-189.056 36.0111L-193 21.7913L-191.659 21.4438L-187.716 35.6636L-189.056 36.0111Z" fill="#C7C6F9"/>
<path fill-rule="evenodd" clip-rule="evenodd" d="M94.477 38.7475L90.3412 52.9137L89.0055 52.5492L93.1414 38.383L94.477 38.7475Z" fill="#C7C6F9"/>
<path fill-rule="evenodd" clip-rule="evenodd" d="M77.9337 38.6042L74.6583 52.9812L73.3029 52.6925L76.5783 38.3155L77.9337 38.6042Z" fill="#C7C6F9"/>
<path fill-rule="evenodd" clip-rule="evenodd" d="M63.0689 39.5543L55.632 52.3997L54.4209 51.7443L61.8579 38.8989L63.0689 39.5543Z" fill="#C7C6F9"/>
<path fill-rule="evenodd" clip-rule="evenodd" d="M46.3891 40.2907L36.9437 51.8383L35.8551 51.006L45.3005 39.4583L46.3891 40.2907Z" fill="#C7C6F9"/>
<path fill-rule="evenodd" clip-rule="evenodd" d="M28.7462 41.5673L16.8681 50.7763L15.9999 49.7294L27.878 40.5204L28.7462 41.5673Z" fill="#C7C6F9"/>
<path fill-rule="evenodd" clip-rule="evenodd" d="M9.50429 42.6859L-3.83302 49.7862L-4.50244 48.6108L8.83487 41.5104L9.50429 42.6859Z" fill="#C7C6F9"/>
<path fill-rule="evenodd" clip-rule="evenodd" d="M-10.6402 44.1352L-25.1988 48.4445L-25.6051 47.1614L-11.0465 42.8521L-10.6402 44.1352Z" fill="#C7C6F9"/>
<path fill-rule="evenodd" clip-rule="evenodd" d="M-32.2628 46.371L-47.4876 46.2694L-47.4781 44.9276L-32.2532 45.0292L-32.2628 46.371Z" fill="#C7C6F9"/>
<path fill-rule="evenodd" clip-rule="evenodd" d="M-55.0466 48.0445L-69.8392 44.5557L-69.5103 43.2521L-54.7177 46.7409L-55.0466 48.0445Z" fill="#C7C6F9"/>
<path fill-rule="evenodd" clip-rule="evenodd" d="M-79.9879 49.7243L-93.3985 42.7562L-92.7416 41.5742L-79.3309 48.5423L-79.9879 49.7243Z" fill="#C7C6F9"/>
<path fill-rule="evenodd" clip-rule="evenodd" d="M-105.833 50.994L-117.304 41.3135L-116.392 40.3026L-104.92 49.9831L-105.833 50.994Z" fill="#C7C6F9"/>
<path fill-rule="evenodd" clip-rule="evenodd" d="M-132.113 51.8739L-141.452 40.2477L-140.356 39.4247L-131.017 51.0509L-132.113 51.8739Z" fill="#C7C6F9"/>
<path fill-rule="evenodd" clip-rule="evenodd" d="M-159.473 52.4427L-166.712 39.4919L-165.491 38.8539L-158.252 51.8047L-159.473 52.4427Z" fill="#C7C6F9"/>
<path fill-rule="evenodd" clip-rule="evenodd" d="M-189.056 52.932L-193 38.7121L-191.659 38.3646L-187.716 52.5844L-189.056 52.932Z" fill="#C7C6F9"/>
<path fill-rule="evenodd" clip-rule="evenodd" d="M-32.2628 63.6426L-47.4876 63.541L-47.4781 62.1992L-32.2532 62.3008L-32.2628 63.6426Z" fill="#C7C6F9"/>
<path fill-rule="evenodd" clip-rule="evenodd" d="M92.4352 55.5608V70.281H91.0474V55.5608H92.4352Z" fill="#C7C6F9"/>
<path fill-rule="evenodd" clip-rule="evenodd" d="M77.4855 55.7531L75.1222 70.297L73.7511 70.0887L76.1144 55.5449L77.4855 55.7531Z" fill="#C7C6F9"/>
<path fill-rule="evenodd" clip-rule="evenodd" d="M62.3358 56.3959L56.4354 69.9659L55.156 69.4459L61.0564 55.8759L62.3358 56.3959Z" fill="#C7C6F9"/>
<path fill-rule="evenodd" clip-rule="evenodd" d="M46.389 57.5643L36.9436 69.11L35.8551 68.2776L45.3005 56.7318L46.389 57.5643Z" fill="#C7C6F9"/>
<path fill-rule="evenodd" clip-rule="evenodd" d="M28.7463 58.8389L16.8682 68.0497L15.9999 67.003L27.878 57.7921L28.7463 58.8389Z" fill="#C7C6F9"/>
<path fill-rule="evenodd" clip-rule="evenodd" d="M9.50418 59.9595L-3.83313 67.0579L-4.50238 65.8823L8.83493 58.7839L9.50418 59.9595Z" fill="#C7C6F9"/>
<path fill-rule="evenodd" clip-rule="evenodd" d="M-10.6403 61.4088L-25.1989 65.7161L-25.605 64.433L-11.0464 60.1256L-10.6403 61.4088Z" fill="#C7C6F9"/>
<path fill-rule="evenodd" clip-rule="evenodd" d="M-55.0466 65.3181L-69.8393 61.8273L-69.5102 60.5237L-54.7176 64.0145L-55.0466 65.3181Z" fill="#C7C6F9"/>
<path fill-rule="evenodd" clip-rule="evenodd" d="M-79.9879 66.9959L-93.3986 60.0278L-92.7416 58.8459L-79.3309 65.8139L-79.9879 66.9959Z" fill="#C7C6F9"/>
<path fill-rule="evenodd" clip-rule="evenodd" d="M-105.833 68.2657L-117.304 58.5871L-116.392 57.576L-104.92 67.2547L-105.833 68.2657Z" fill="#C7C6F9"/>
<path fill-rule="evenodd" clip-rule="evenodd" d="M-132.113 69.1455L-141.452 57.5193L-140.356 56.6963L-131.017 68.3225L-132.113 69.1455Z" fill="#C7C6F9"/>
<path fill-rule="evenodd" clip-rule="evenodd" d="M-159.473 69.7163L-166.712 56.7654L-165.491 56.1274L-158.252 69.0783L-159.473 69.7163Z" fill="#C7C6F9"/>
<path fill-rule="evenodd" clip-rule="evenodd" d="M-189.056 70.2036L-193 55.9857L-191.66 55.6381L-187.716 69.856L-189.056 70.2036Z" fill="#C7C6F9"/>
<path fill-rule="evenodd" clip-rule="evenodd" d="M99.0302 -86.4135L84.1563 -89.5535L84.4524 -90.8644L99.3263 -87.7245L99.0302 -86.4135Z" fill="#C7C6F9"/>
<path fill-rule="evenodd" clip-rule="evenodd" d="M82.9099 -86.4191L68.032 -89.5456L68.3268 -90.8569L83.2046 -87.7304L82.9099 -86.4191Z" fill="#C7C6F9"/>
<path fill-rule="evenodd" clip-rule="evenodd" d="M66.0747 -86.5395L51.1434 -89.4225L51.4151 -90.7384L66.3465 -87.8554L66.0747 -86.5395Z" fill="#C7C6F9"/>
<path fill-rule="evenodd" clip-rule="evenodd" d="M48.4708 -86.6016L33.5137 -89.3563L33.7734 -90.6744L48.7305 -87.9198L48.4708 -86.6016Z" fill="#C7C6F9"/>
<path fill-rule="evenodd" clip-rule="evenodd" d="M27.0208 -86.4191L12.1429 -89.5457L12.4377 -90.8569L27.3155 -87.7304L27.0208 -86.4191Z" fill="#C7C6F9"/>
<path fill-rule="evenodd" clip-rule="evenodd" d="M8.77202 -86.5395L-6.15938 -89.4226L-5.88759 -90.7384L9.04381 -87.8554L8.77202 -86.5395Z" fill="#C7C6F9"/>
<path fill-rule="evenodd" clip-rule="evenodd" d="M-9.96994 -86.6016L-24.9271 -89.3563L-24.6674 -90.6744L-9.71024 -87.9198L-9.96994 -86.6016Z" fill="#C7C6F9"/>
<path fill-rule="evenodd" clip-rule="evenodd" d="M-32.538 -86.5451L-47.4714 -89.4148L-47.2008 -90.7309L-32.2674 -87.8613L-32.538 -86.5451Z" fill="#C7C6F9"/>
<path fill-rule="evenodd" clip-rule="evenodd" d="M-55.0025 -86.3703L-69.8586 -89.5985L-69.5542 -90.9077L-54.6982 -87.6795L-55.0025 -86.3703Z" fill="#C7C6F9"/>
<path fill-rule="evenodd" clip-rule="evenodd" d="M-79.9878 -84.563L-93.3985 -91.5311L-92.7415 -92.7131L-79.3308 -85.745L-79.9878 -84.563Z" fill="#C7C6F9"/>
<path fill-rule="evenodd" clip-rule="evenodd" d="M-105.833 -83.2932L-117.304 -92.9718L-116.392 -93.9829L-104.92 -84.3042L-105.833 -83.2932Z" fill="#C7C6F9"/>
<path fill-rule="evenodd" clip-rule="evenodd" d="M-132.113 -82.4134L-141.452 -94.0397L-140.356 -94.8627L-131.017 -83.2364L-132.113 -82.4134Z" fill="#C7C6F9"/>
<path fill-rule="evenodd" clip-rule="evenodd" d="M-159.473 -81.8446L-166.712 -94.7954L-165.491 -95.4334L-158.252 -82.4826L-159.473 -81.8446Z" fill="#C7C6F9"/>
<path fill-rule="evenodd" clip-rule="evenodd" d="M-189.056 -81.3553L-193 -95.5732L-191.659 -95.9208L-187.716 -81.7029L-189.056 -81.3553Z" fill="#C7C6F9"/>
<path fill-rule="evenodd" clip-rule="evenodd" d="M-32.256 -65.4574L-47.4828 -65.4574V-66.7993L-32.256 -66.7993V-65.4574Z" fill="#C7C6F9"/>
<path fill-rule="evenodd" clip-rule="evenodd" d="M-13.5814 -65.4574H-28.8082V-66.7993H-13.5814V-65.4574Z" fill="#C7C6F9"/>
<path fill-rule="evenodd" clip-rule="evenodd" d="M5.09326 -65.4574H-10.1335V-66.7993H5.09326V-65.4574Z" fill="#C7C6F9"/>
<path fill-rule="evenodd" clip-rule="evenodd" d="M23.7679 -65.4574H8.54309V-66.7993H23.7679V-65.4574Z" fill="#C7C6F9"/>
<path fill-rule="evenodd" clip-rule="evenodd" d="M42.4425 -65.4574H27.2177V-66.7993H42.4425V-65.4574Z" fill="#C7C6F9"/>
<path fill-rule="evenodd" clip-rule="evenodd" d="M61.1172 -65.4574L45.8924 -65.4574V-66.7993L61.1172 -66.7993V-65.4574Z" fill="#C7C6F9"/>
<path fill-rule="evenodd" clip-rule="evenodd" d="M79.7918 -65.4574H64.567V-66.7993H79.7918V-65.4574Z" fill="#C7C6F9"/>
<path fill-rule="evenodd" clip-rule="evenodd" d="M98.4685 -65.4574H83.2417V-66.7993H98.4685V-65.4574Z" fill="#C7C6F9"/>
<path fill-rule="evenodd" clip-rule="evenodd" d="M-55.0025 -63.8597L-69.8586 -67.0878L-69.5542 -68.397L-54.6982 -65.1689L-55.0025 -63.8597Z" fill="#C7C6F9"/>
<path fill-rule="evenodd" clip-rule="evenodd" d="M-79.9878 -62.0524L-93.3985 -69.0205L-92.7415 -70.2025L-79.3308 -63.2344L-79.9878 -62.0524Z" fill="#C7C6F9"/>
<path fill-rule="evenodd" clip-rule="evenodd" d="M-105.833 -60.7826L-117.304 -70.4612L-116.392 -71.4723L-104.92 -61.7936L-105.833 -60.7826Z" fill="#C7C6F9"/>
<path fill-rule="evenodd" clip-rule="evenodd" d="M-132.113 -59.9028L-141.452 -71.5291L-140.356 -72.3521L-131.017 -60.7258L-132.113 -59.9028Z" fill="#C7C6F9"/>
<path fill-rule="evenodd" clip-rule="evenodd" d="M-159.473 -59.334L-166.712 -72.2848L-165.491 -72.9228L-158.252 -59.972L-159.473 -59.334Z" fill="#C7C6F9"/>
<path fill-rule="evenodd" clip-rule="evenodd" d="M-189.056 -58.8447L-193 -73.0626L-191.659 -73.4102L-187.716 -59.1922L-189.056 -58.8447Z" fill="#C7C6F9"/>
</g>
<defs>
<filter id="filter0_d" x="-197" y="-247" width="597.596" height="325.297" filterUnits="userSpaceOnUse" color-interpolation-filters="sRGB">
<feFlood flood-opacity="0" result="BackgroundImageFix"/>
<feColorMatrix in="SourceAlpha" type="matrix" values="0 0 0 0 0 0 0 0 0 0 0 0 0 0 0 0 0 0 127 0"/>
<feOffset dy="4"/>
<feGaussianBlur stdDeviation="2"/>
<feColorMatrix type="matrix" values="0 0 0 0 0 0 0 0 0 0 0 0 0 0 0 0 0 0 0.25 0"/>
<feBlend mode="normal" in2="BackgroundImageFix" result="effect1_dropShadow"/>
<feBlend mode="normal" in="SourceGraphic" in2="effect1_dropShadow" result="shape"/>
</filter>
</defs>
</svg>
