<svg width="117" height="35" viewBox="0 0 117 35" fill="none" xmlns="http://www.w3.org/2000/svg">
<path d="M35.1117 15.6683H24.4156L33.6784 10.3367L31.8415 7.16333L22.5775 12.495L27.9244 3.26083L24.742 1.42917L19.3939 10.661V0H15.7178V10.6622L10.3697 1.42917L7.18614 3.26083L12.533 12.4927L3.27132 7.16333L1.43325 10.3367L10.6961 15.6683H0V19.3328H10.695L1.43325 24.6645L3.27015 27.8378L12.5342 22.5062L7.18614 31.7403L10.3685 33.572L15.7178 24.339V35H19.3939V24.1103L24.8403 33.5137L27.8249 31.7963L22.3774 22.3907L31.8392 27.8367L33.6773 24.6633L24.4156 19.3317H35.1105V15.6683H35.1117V15.6683ZM17.5558 22.4817C16.8996 22.4817 16.2498 22.3529 15.6435 22.1026C15.0372 21.8523 14.4863 21.4853 14.0222 21.0226C13.5581 20.56 13.19 20.0107 12.9388 19.4062C12.6876 18.8017 12.5583 18.1538 12.5582 17.4994C12.5581 16.8451 12.6873 16.1971 12.9384 15.5925C13.1894 14.9879 13.5574 14.4386 14.0214 13.9759C14.4854 13.5131 15.0362 13.146 15.6424 12.8955C16.2487 12.645 16.8985 12.5161 17.5547 12.516C18.88 12.5158 20.1511 13.0407 21.0883 13.975C22.0256 14.9094 22.5522 16.1767 22.5523 17.4982C22.5525 18.8198 22.0262 20.0872 21.0891 21.0218C20.1521 21.9564 18.8812 22.4815 17.5558 22.4817V22.4817Z" fill="#625DF5"/>
<path d="M44.5874 30.3018V4.69812H49.3002V30.3018H44.5874V30.3018ZM89.788 12.9021H94.2878V15.0255C95.2449 13.328 97.4784 12.4075 99.3914 12.4075C101.766 12.4075 103.679 13.4341 104.565 15.3066C105.946 13.1833 107.79 12.4075 110.093 12.4075C113.318 12.4075 116.4 14.3523 116.4 19.0201V30.3018H111.83V19.9756C111.83 18.1008 110.908 16.6856 108.746 16.6856C106.725 16.6856 105.52 18.2431 105.52 20.118V30.303H100.845V19.9756C100.845 18.1008 99.8875 16.6856 97.7604 16.6856C95.7047 16.6856 94.4996 18.2081 94.4996 20.118V30.303H89.788V12.9021V12.9021ZM59.9507 30.8058C54.6412 30.8058 50.7966 26.8776 50.7966 21.602C50.7966 16.4103 54.6295 12.39 59.9507 12.39C65.2976 12.39 69.1048 16.4476 69.1048 21.602C69.1048 26.8403 65.2578 30.8058 59.9507 30.8058ZM59.9507 16.6483C58.6337 16.6501 57.3713 17.1729 56.4404 18.1018C55.5095 19.0307 54.9861 20.2899 54.9852 21.6031C54.9861 22.9163 55.5095 24.1755 56.4404 25.1045C57.3713 26.0334 58.6337 26.5561 59.9507 26.558C61.2674 26.5558 62.5296 26.0329 63.4602 25.104C64.3909 24.1752 64.9141 22.9161 64.915 21.6031C64.9141 20.2901 64.3909 19.0311 63.4602 18.1022C62.5296 17.1733 61.2674 16.6504 59.9507 16.6483V16.6483ZM79.1703 30.8058C73.8608 30.8058 70.0162 26.8776 70.0162 21.602C70.0162 16.4103 73.8491 12.39 79.1703 12.39C84.5172 12.39 88.3243 16.4476 88.3243 21.602C88.3243 26.8403 84.475 30.8058 79.1703 30.8058ZM79.1703 16.5888C77.8382 16.5909 76.5613 17.1198 75.6198 18.0594C74.6782 18.9989 74.1487 20.2725 74.1475 21.6008C74.1487 22.9291 74.6782 24.2026 75.6198 25.1422C76.5613 26.0818 77.8382 26.6106 79.1703 26.6128C80.5023 26.6106 81.7792 26.0818 82.7208 25.1422C83.6624 24.2026 84.1918 22.9291 84.1931 21.6008C84.1918 20.2725 83.6624 18.9989 82.7208 18.0594C81.7792 17.1198 80.5023 16.5909 79.1703 16.5888V16.5888Z" fill="white"/>
</svg>
