<svg width="15" height="16" viewBox="0 0 15 16" fill="none" xmlns="http://www.w3.org/2000/svg">
<path fill-rule="evenodd" clip-rule="evenodd" d="M10.8885 1.00563C8.32175 -0.398201 5.2994 -0.212288 2.95115 1.38124L1.82147 0.224036C1.35478 -0.254024 0.558447 0.083653 0.558447 0.759007V5.00084C0.558447 5.41819 0.888092 5.75966 1.29922 5.75966H5.43644C6.09573 5.75966 6.42537 4.94013 5.95868 4.46207L5.1142 3.59701C6.47352 2.91407 8.09211 2.91786 9.49217 3.68048C11.833 4.9629 12.7219 7.96025 11.4737 10.3581C10.2218 12.756 7.29578 13.6666 4.95494 12.388C4.01045 11.8682 3.27709 11.0601 2.84373 10.0774C2.69187 9.73211 2.29926 9.56896 1.94369 9.67899L0.53252 10.1153C0.117687 10.2443 -0.111952 10.7148 0.0547217 11.1246C0.743641 12.8053 1.96221 14.1864 3.55858 15.0629C4.72159 15.7003 5.9735 16 7.20689 16C9.98849 16 12.6849 14.471 14.085 11.7885C16.1036 7.91472 14.6702 3.07722 10.8885 1.00563Z" fill="white"/>
</svg>
