<svg xmlns="http://www.w3.org/2000/svg" width="10" height="8" viewBox="0 0 10 8">
<path fill="#0D99FF" d="M3.145,8 C6.919,8 8.982,4.922 8.982,2.254 C8.982,2.166 8.981,2.079 8.976,1.993 C9.377,1.708 9.726,1.352 10,0.947 C9.632,1.107 9.237,1.217 8.822,1.265 C9.245,1.015 9.571,0.619 9.724,0.148 C9.327,0.379 8.889,0.548 8.421,0.638 C8.03036054,0.22939629 7.48929173,-0.00119949996 6.924,1.11022302e-16 C5.791,1.11022302e-16 4.872,0.904 4.872,2.02 C4.872,2.178 4.89,2.332 4.925,2.48 C3.28150987,2.40200187 1.74665077,1.63620554 0.696,0.37 C0.513838565,0.677217828 0.417806962,1.02783681 0.418,1.385 C0.418,2.085 0.78,2.705 1.331,3.066 C1.00536112,3.05635436 0.686647239,2.96965048 0.401,2.813 L0.401,2.839 C0.407370352,3.80704434 1.09640832,4.63589925 2.047,4.819 C1.744846,4.89984371 1.42839449,4.91180462 1.121,4.854 C1.396645,5.68158387 2.16579947,6.24410582 3.038,6.256 C2.17432345,6.92268953 1.08325272,7.22329065 -4.4408921e-16,7.093 C0.94126782,7.68710691 2.03192075,8.00164497 3.145,8"></path>
</svg>
