<svg fill="none" height="48" viewBox="0 0 48 48" width="48" xmlns="http://www.w3.org/2000/svg"><path clip-rule="evenodd" d="m24 48c13.2549 0 24-10.7452 24-24s-10.7451-24-24-24-24 10.7452-24 24 10.7451 24 24 24zm9.0249-27.5344c.812-.8862.7573-2.268-.1221-3.0862-.8799-.8183-2.2509-.7632-3.0634.123l-8.7007 9.4941-2.9785-3.25c-.8121-.8862-2.1836-.9413-3.063-.123-.8799.8182-.9346 2.1999-.1221 3.0862l4.5708 4.9879c.4106.4477.9878.7024 1.5928.7024s1.1826-.2547 1.5927-.7024z" fill="#fff" fill-rule="evenodd"/></svg>